<svg xmlns="http://www.w3.org/2000/svg" viewBox="0 0 500 500" width="500" height="500">
  <defs>
    <radialGradient id="sky764" cx="50%" cy="50%" r="72%">
      <stop offset="0%" stop-color="#2A2270" stop-opacity="0.32"/>
      <stop offset="100%" stop-color="#0A0A1E" stop-opacity="1"/>
    </radialGradient>
    <radialGradient id="glow764">
      <stop offset="0%" stop-color="#E6ECFF" stop-opacity="0.55"/>
      <stop offset="28%" stop-color="#7C8CFF" stop-opacity="0.26"/>
      <stop offset="62%" stop-color="#2A2270" stop-opacity="0.12"/>
      <stop offset="100%" stop-color="#2A2270" stop-opacity="0"/>
    </radialGradient>
    <!--
      主体：临边昏暗。恒星的边比心暗，因为你在边上看到的是更外、更冷的一层。
      白心收在 10% 以内 —— 放到 18% 时，A/F 这些本来就近白的光谱型
      会把整颗星糊成一个白球，光谱型这个特征就白设了。
    -->
    <radialGradient id="body764" cx="42%" cy="38%" r="74%">
      <stop offset="0%" stop-color="#FFFFFF"/>
      <stop offset="10%" stop-color="#E6ECFF"/>
      <stop offset="44%" stop-color="#7C8CFF"/>
      <stop offset="100%" stop-color="#2A2270"/>
    </radialGradient>
    <!-- 光束的衰减：以星为心，所以两道束共用一条渐变，且与角度无关 -->
    <radialGradient id="beam764" cx="250" cy="250" r="358.18"
                    gradientUnits="userSpaceOnUse">
      <stop offset="0%" stop-color="#FFFFFF" stop-opacity="0.85"/>
      <stop offset="22%" stop-color="#E6ECFF" stop-opacity="0.4"/>
      <stop offset="60%" stop-color="#7C8CFF" stop-opacity="0.12"/>
      <stop offset="100%" stop-color="#7C8CFF" stop-opacity="0"/>
    </radialGradient>
    <linearGradient id="disk764" x1="0" y1="0" x2="1" y2="0">
      <stop offset="0%" stop-color="#7C8CFF"/>
      <stop offset="35%" stop-color="#E6ECFF"/>
      <stop offset="65%" stop-color="#FFFFFF"/>
      <stop offset="100%" stop-color="#7C8CFF"/>
    </linearGradient>
  </defs>

  <!-- 满幅。没有留白边、没有题记条 —— 画面就是画面 -->
  <rect width="500" height="500" fill="#0A0A1E"/>
  <rect width="500" height="500" fill="url(#sky764)"/>
  <circle cx="236.37" cy="111.12" r="0.4" fill="#FFFFFF" opacity="0.18"/><circle cx="94.26" cy="210.53" r="1.96" fill="#7C8CFF" opacity="0.69"/><circle cx="243.89" cy="90.08" r="1.6" fill="#FFFFFF" opacity="0.57"/><circle cx="442.6" cy="250.88" r="0.46" fill="#FFFFFF" opacity="0.2"/><circle cx="267.45" cy="473.93" r="0.89" fill="#FFFFFF" opacity="0.34"/><circle cx="254.83" cy="365.16" r="0.85" fill="#FFFFFF" opacity="0.33"/><circle cx="481.61" cy="455.36" r="0.69" fill="#FFFFFF" opacity="0.27"/><circle cx="88.21" cy="9.99" r="1.43" fill="#FFFFFF" opacity="0.52"/><circle cx="280.95" cy="414.03" r="0.51" fill="#FFFFFF" opacity="0.22"/><circle cx="313.92" cy="496.3" r="1.38" fill="#FFFFFF" opacity="0.5"/><circle cx="259.56" cy="356.37" r="0.4" fill="#FFFFFF" opacity="0.18"/><circle cx="92.81" cy="407.68" r="1.62" fill="#FFFFFF" opacity="0.58"/><circle cx="275.11" cy="294.18" r="1.22" fill="#FFFFFF" opacity="0.45"/><circle cx="83.38" cy="388.42" r="0.54" fill="#FFFFFF" opacity="0.22"/><circle cx="279.54" cy="255.5" r="0.51" fill="#FFFFFF" opacity="0.22"/><circle cx="405.22" cy="62.38" r="1.97" fill="#FFFFFF" opacity="0.69"/><circle cx="456.45" cy="89.46" r="0.41" fill="#FFFFFF" opacity="0.18"/><circle cx="336.86" cy="157.82" r="2.15" fill="#FFFFFF" opacity="0.75"/><path d="M325.03000000000003 157.82 L336.86 156.74 L348.69 157.82 L336.86 158.9Z"
      fill="#FFFFFF" opacity="0.4"/>
    <path d="M336.86 145.98999999999998 L337.94 157.82 L336.86 169.65 L335.78 157.82Z"
      fill="#FFFFFF" opacity="0.4"/><circle cx="288.47" cy="371.17" r="0.98" fill="#FFFFFF" opacity="0.37"/><circle cx="445.69" cy="181.6" r="0.42" fill="#7C8CFF" opacity="0.19"/><circle cx="108.28" cy="361.84" r="1.87" fill="#FFFFFF" opacity="0.66"/><circle cx="272.2" cy="290.57" r="0.57" fill="#FFFFFF" opacity="0.24"/><circle cx="185.14" cy="111.13" r="1.11" fill="#FFFFFF" opacity="0.41"/><circle cx="60.6" cy="82.35" r="0.41" fill="#7C8CFF" opacity="0.18"/><circle cx="21.93" cy="100.88" r="2.29" fill="#FFFFFF" opacity="0.8"/><path d="M9.33 100.88 L21.93 99.73 L34.53 100.88 L21.93 102.03Z"
      fill="#FFFFFF" opacity="0.4"/>
    <path d="M21.93 88.28 L23.08 100.88 L21.93 113.47999999999999 L20.78 100.88Z"
      fill="#FFFFFF" opacity="0.4"/><circle cx="4.86" cy="242.49" r="0.4" fill="#7C8CFF" opacity="0.18"/><circle cx="426.92" cy="312.85" r="0.41" fill="#FFFFFF" opacity="0.18"/><circle cx="498.74" cy="272.87" r="0.5" fill="#FFFFFF" opacity="0.21"/><circle cx="239.81" cy="64.57" r="0.98" fill="#FFFFFF" opacity="0.37"/><circle cx="80.19" cy="228.55" r="0.57" fill="#FFFFFF" opacity="0.24"/><circle cx="49.24" cy="7.77" r="0.4" fill="#FFFFFF" opacity="0.18"/><circle cx="177.88" cy="49.42" r="0.4" fill="#7C8CFF" opacity="0.18"/><circle cx="139.97" cy="34.63" r="0.41" fill="#FFFFFF" opacity="0.18"/><circle cx="138.9" cy="4.97" r="2.05" fill="#7C8CFF" opacity="0.72"/><path d="M127.63000000000001 4.97 L138.9 3.95 L150.17000000000002 4.97 L138.9 5.99Z"
      fill="#FFFFFF" opacity="0.4"/>
    <path d="M138.9 -6.3 L139.92 4.97 L138.9 16.24 L137.88 4.97Z"
      fill="#FFFFFF" opacity="0.4"/>

  <!-- 辉光垫在主体下面：先有光，才有轮廓 -->
  <circle cx="250" cy="250" r="261.74" fill="url(#glow764)"/>
  <circle cx="250" cy="250" r="137.76" fill="url(#body764)"/><ellipse cx="236.54" cy="333.03" rx="15.66" ry="9.25"
      transform="rotate(189.21 236.54 333.03)"
      fill="#E6ECFF" opacity="0.11"/><ellipse cx="299.85" cy="233.65" rx="20.74" ry="9.4"
      transform="rotate(71.84 299.85 233.65)"
      fill="#E6ECFF" opacity="0.1"/><ellipse cx="354.1" cy="310.71" rx="16.83" ry="7.55"
      transform="rotate(120.25 354.1 310.71)"
      fill="#E6ECFF" opacity="0.05"/><ellipse cx="320.17" cy="168.89" rx="28.09" ry="15.45"
      transform="rotate(40.86 320.17 168.89)"
      fill="#E6ECFF" opacity="0.06"/><ellipse cx="210.48" cy="275.74" rx="16.53" ry="9.04"
      transform="rotate(236.92 210.48 275.74)"
      fill="#E6ECFF" opacity="0.04"/><ellipse cx="186.32" cy="328.67" rx="15.42" ry="9.97"
      transform="rotate(218.99 186.32 328.67)"
      fill="#E6ECFF" opacity="0.1"/><ellipse cx="270.47" cy="347.07" rx="13.6" ry="8.62"
      transform="rotate(168.09 270.47 347.07)"
      fill="#E6ECFF" opacity="0.06"/><ellipse cx="171.75" cy="272.78" rx="20.75" ry="14.29"
      transform="rotate(253.77 171.75 272.78)"
      fill="#E6ECFF" opacity="0.1"/><ellipse cx="258.75" cy="233.61" rx="25.27" ry="13.23"
      transform="rotate(28.1 258.75 233.61)"
      fill="#E6ECFF" opacity="0.07"/><ellipse cx="260.42" cy="211.74" rx="14.32" ry="8.76"
      transform="rotate(15.23 260.42 211.74)"
      fill="#E6ECFF" opacity="0.08"/><ellipse cx="278.3" cy="150.72" rx="32.23" ry="15.91"
      transform="rotate(15.91 278.3 150.72)"
      fill="#E6ECFF" opacity="0.04"/><ellipse cx="260.16" cy="365.53" rx="27.04" ry="15.42"
      transform="rotate(174.98 260.16 365.53)"
      fill="#E6ECFF" opacity="0.06"/><ellipse cx="180.36" cy="293.51" rx="21.02" ry="8.77"
      transform="rotate(238 180.36 293.51)"
      fill="#E6ECFF" opacity="0.09"/><ellipse cx="160.38" cy="256.74" rx="20.87" ry="8.42"
      transform="rotate(265.7 160.38 256.74)"
      fill="#E6ECFF" opacity="0.11"/><ellipse cx="138.86" cy="250.72" rx="26.7" ry="13.35"
      transform="rotate(269.63 138.86 250.72)"
      fill="#E6ECFF" opacity="0.05"/><ellipse cx="182.72" cy="313.5" rx="19.77" ry="13.72"
      transform="rotate(226.65 182.72 313.5)"
      fill="#E6ECFF" opacity="0.07"/><ellipse cx="226.44" cy="267.29" rx="22.43" ry="10.07"
      transform="rotate(233.73 226.44 267.29)"
      fill="#E6ECFF" opacity="0.07"/><ellipse cx="339.26" cy="264.81" rx="19.23" ry="9.62"
      transform="rotate(99.42 339.26 264.81)"
      fill="#E6ECFF" opacity="0.08"/><ellipse cx="294.29" cy="234.74" rx="24.4" ry="15.47"
      transform="rotate(70.99 294.29 234.74)"
      fill="#E6ECFF" opacity="0.07"/><ellipse cx="354.28" cy="216.82" rx="27.88" ry="17.3"
      transform="rotate(72.35 354.28 216.82)"
      fill="#E6ECFF" opacity="0.08"/><ellipse cx="358.26" cy="277.75" rx="22.37" ry="11.23"
      transform="rotate(104.37 358.26 277.75)"
      fill="#E6ECFF" opacity="0.08"/><ellipse cx="213.38" cy="275.99" rx="26.74" ry="12.95"
      transform="rotate(234.63 213.38 275.99)"
      fill="#E6ECFF" opacity="0.06"/><ellipse cx="165.6" cy="330.66" rx="17.67" ry="11.16"
      transform="rotate(226.3 165.6 330.66)"
      fill="#E6ECFF" opacity="0.04"/><ellipse cx="244.86" cy="338.56" rx="32.23" ry="18.37"
      transform="rotate(183.32 244.86 338.56)"
      fill="#E6ECFF" opacity="0.05"/><ellipse cx="195.35" cy="249.18" rx="26.83" ry="11.28"
      transform="rotate(270.85 195.35 249.18)"
      fill="#E6ECFF" opacity="0.07"/><ellipse cx="176.83" cy="311.59" rx="30.67" ry="14.93"
      transform="rotate(229.91 176.83 311.59)"
      fill="#E6ECFF" opacity="0.09"/><circle cx="250" cy="250" r="136.38" fill="none"
    stroke="#E6ECFF" stroke-width="6.89" opacity="0.30"/><circle cx="250" cy="250" r="140.52" fill="none"
    stroke="#E6ECFF" stroke-width="1.4" opacity="0.55"/><path d="M376.41 297.39 Q415.28 355.5 346.39 344.52" fill="#E6ECFF"
      opacity="0.11"/><path d="M376.41 297.39 Q415.28 355.5 346.39 344.52" fill="none"
      stroke="#E6ECFF" stroke-width="3.39"
      stroke-linecap="round" opacity="0.53"/><path d="M377.79 293.54 Q433.93 359.7 351.94 338.52" fill="#E6ECFF"
      opacity="0.2"/><path d="M377.79 293.54 Q433.93 359.7 351.94 338.52" fill="none"
      stroke="#E6ECFF" stroke-width="3.32"
      stroke-linecap="round" opacity="0.6"/><path d="M316.69 132.62 Q396.81 84.66 355.91 166.28" fill="#E6ECFF"
      opacity="0.16"/><path d="M316.69 132.62 Q396.81 84.66 355.91 166.28" fill="none"
      stroke="#E6ECFF" stroke-width="2.16"
      stroke-linecap="round" opacity="0.79"/><path d="M278.98 381.86 Q251.54 472.59 191.03 371.45" fill="#E6ECFF"
      opacity="0.11"/><path d="M278.98 381.86 Q251.54 472.59 191.03 371.45" fill="none"
      stroke="#E6ECFF" stroke-width="2.31"
      stroke-linecap="round" opacity="0.67"/><path d="M225.66 382.79 Q176.91 427.44 161.14 351.64" fill="#E6ECFF"
      opacity="0.14"/><path d="M225.66 382.79 Q176.91 427.44 161.14 351.64" fill="none"
      stroke="#E6ECFF" stroke-width="2.25"
      stroke-linecap="round" opacity="0.65"/>
</svg>