<svg xmlns="http://www.w3.org/2000/svg" viewBox="0 0 500 500" width="500" height="500">
  <defs>
    <radialGradient id="sky1124" cx="50%" cy="50%" r="72%">
      <stop offset="0%" stop-color="#6B300E" stop-opacity="0.32"/>
      <stop offset="100%" stop-color="#140C08" stop-opacity="1"/>
    </radialGradient>
    <radialGradient id="glow1124">
      <stop offset="0%" stop-color="#FFE3BC" stop-opacity="0.55"/>
      <stop offset="28%" stop-color="#FF9A3D" stop-opacity="0.26"/>
      <stop offset="62%" stop-color="#6B300E" stop-opacity="0.12"/>
      <stop offset="100%" stop-color="#6B300E" stop-opacity="0"/>
    </radialGradient>
    <!--
      主体：临边昏暗。恒星的边比心暗，因为你在边上看到的是更外、更冷的一层。
      白心收在 10% 以内 —— 放到 18% 时，A/F 这些本来就近白的光谱型
      会把整颗星糊成一个白球，光谱型这个特征就白设了。
    -->
    <radialGradient id="body1124" cx="42%" cy="38%" r="74%">
      <stop offset="0%" stop-color="#FFFFFF"/>
      <stop offset="10%" stop-color="#FFE3BC"/>
      <stop offset="44%" stop-color="#FF9A3D"/>
      <stop offset="100%" stop-color="#6B300E"/>
    </radialGradient>
    <!-- 光束的衰减：以星为心，所以两道束共用一条渐变，且与角度无关 -->
    <radialGradient id="beam1124" cx="250" cy="250" r="397.49"
                    gradientUnits="userSpaceOnUse">
      <stop offset="0%" stop-color="#FFFFFF" stop-opacity="0.85"/>
      <stop offset="22%" stop-color="#FFE3BC" stop-opacity="0.4"/>
      <stop offset="60%" stop-color="#FF9A3D" stop-opacity="0.12"/>
      <stop offset="100%" stop-color="#FF9A3D" stop-opacity="0"/>
    </radialGradient>
    <linearGradient id="disk1124" x1="0" y1="0" x2="1" y2="0">
      <stop offset="0%" stop-color="#FF9A3D"/>
      <stop offset="35%" stop-color="#FFE3BC"/>
      <stop offset="65%" stop-color="#FFFFFF"/>
      <stop offset="100%" stop-color="#FF9A3D"/>
    </linearGradient>
  </defs>

  <!-- 满幅。没有留白边、没有题记条 —— 画面就是画面 -->
  <rect width="500" height="500" fill="#140C08"/>
  <rect width="500" height="500" fill="url(#sky1124)"/>
  <circle cx="158.66" cy="66.68" r="0.5" fill="#FFFFFF" opacity="0.21"/><circle cx="328.49" cy="380.01" r="0.75" fill="#FFFFFF" opacity="0.3"/><circle cx="62.61" cy="260.4" r="0.4" fill="#FFFFFF" opacity="0.18"/><circle cx="295.77" cy="471.32" r="1.8" fill="#FF9A3D" opacity="0.64"/><circle cx="390.12" cy="250.56" r="0.62" fill="#FFFFFF" opacity="0.25"/><circle cx="7.8" cy="172.94" r="0.42" fill="#FFFFFF" opacity="0.19"/><circle cx="415.39" cy="416.11" r="0.45" fill="#FFFFFF" opacity="0.19"/><circle cx="481.03" cy="253.05" r="2.2" fill="#FFFFFF" opacity="0.77"/><path d="M468.92999999999995 253.05 L481.03 251.95 L493.13 253.05 L481.03 254.15Z"
      fill="#FFFFFF" opacity="0.4"/>
    <path d="M481.03 240.95000000000002 L482.13 253.05 L481.03 265.15000000000003 L479.93 253.05Z"
      fill="#FFFFFF" opacity="0.4"/><circle cx="312.91" cy="129.61" r="0.87" fill="#FFFFFF" opacity="0.33"/><circle cx="85.77" cy="56.2" r="0.4" fill="#FFFFFF" opacity="0.18"/><circle cx="434.55" cy="411.56" r="0.4" fill="#FF9A3D" opacity="0.18"/><circle cx="78.38" cy="320.68" r="0.44" fill="#FFFFFF" opacity="0.19"/><circle cx="105.17" cy="132.58" r="0.66" fill="#FFFFFF" opacity="0.26"/><circle cx="304.78" cy="430.86" r="1.39" fill="#FF9A3D" opacity="0.5"/><circle cx="15.41" cy="65.73" r="0.59" fill="#FFFFFF" opacity="0.24"/><circle cx="180.73" cy="91.52" r="0.48" fill="#FFFFFF" opacity="0.2"/><circle cx="76.26" cy="192.97" r="0.53" fill="#FFFFFF" opacity="0.22"/><circle cx="433.05" cy="218.18" r="1.31" fill="#FFFFFF" opacity="0.48"/><circle cx="375.01" cy="338.29" r="0.52" fill="#FFFFFF" opacity="0.22"/><circle cx="284.71" cy="188.93" r="0.82" fill="#FF9A3D" opacity="0.32"/><circle cx="265.27" cy="405.04" r="1.83" fill="#FF9A3D" opacity="0.65"/><circle cx="464.46" cy="194.71" r="1.79" fill="#FF9A3D" opacity="0.63"/><circle cx="478.16" cy="375.27" r="0.55" fill="#FFFFFF" opacity="0.23"/><circle cx="143.14" cy="318.08" r="1.55" fill="#FFFFFF" opacity="0.56"/><circle cx="444.49" cy="480.5" r="0.61" fill="#FFFFFF" opacity="0.25"/><circle cx="421.74" cy="178.47" r="0.43" fill="#FFFFFF" opacity="0.19"/><circle cx="337.9" cy="98.63" r="0.54" fill="#FF9A3D" opacity="0.23"/><circle cx="201.34" cy="344.81" r="0.71" fill="#FFFFFF" opacity="0.28"/><circle cx="404.13" cy="144.87" r="1.05" fill="#FFFFFF" opacity="0.39"/><circle cx="112.4" cy="129.28" r="0.85" fill="#FFFFFF" opacity="0.33"/><circle cx="437.79" cy="380.64" r="1.16" fill="#FF9A3D" opacity="0.43"/><circle cx="439.08" cy="36.92" r="0.4" fill="#FF9A3D" opacity="0.18"/><circle cx="49.92" cy="497.42" r="0.65" fill="#FFFFFF" opacity="0.26"/><circle cx="177.05" cy="147.64" r="1.87" fill="#FFFFFF" opacity="0.66"/>

  <!-- 辉光垫在主体下面：先有光，才有轮廓 -->
  <circle cx="250" cy="250" r="290.47" fill="url(#glow1124)"/>
  <circle cx="250" cy="250" r="152.88" fill="url(#body1124)"/><ellipse cx="174.52" cy="166.33" rx="32.29" ry="17.97"
      transform="rotate(317.95 174.52 166.33)"
      fill="#FFE3BC" opacity="0.1"/><ellipse cx="200.96" cy="231.75" rx="36.02" ry="14.46"
      transform="rotate(290.41 200.96 231.75)"
      fill="#FFE3BC" opacity="0.12"/><ellipse cx="153.5" cy="161.21" rx="32.16" ry="17.12"
      transform="rotate(312.62 153.5 161.21)"
      fill="#FFE3BC" opacity="0.08"/><ellipse cx="251.74" cy="337.79" rx="17.52" ry="8.34"
      transform="rotate(178.86 251.74 337.79)"
      fill="#FFE3BC" opacity="0.05"/><ellipse cx="188.36" cy="327.46" rx="19.18" ry="8.47"
      transform="rotate(218.51 188.36 327.46)"
      fill="#FFE3BC" opacity="0.05"/><ellipse cx="176.8" cy="248.36" rx="36.35" ry="21.11"
      transform="rotate(271.28 176.8 248.36)"
      fill="#FFE3BC" opacity="0.06"/><ellipse cx="271.23" cy="204.25" rx="15.13" ry="8.24"
      transform="rotate(24.89 271.23 204.25)"
      fill="#FFE3BC" opacity="0.12"/><ellipse cx="192.51" cy="224.18" rx="20.79" ry="9.08"
      transform="rotate(294.18 192.51 224.18)"
      fill="#FFE3BC" opacity="0.11"/><ellipse cx="306.6" cy="222.35" rx="20.85" ry="9.91"
      transform="rotate(63.96 306.6 222.35)"
      fill="#FFE3BC" opacity="0.1"/><ellipse cx="188.11" cy="196.61" rx="21.46" ry="13.74"
      transform="rotate(310.78 188.11 196.61)"
      fill="#FFE3BC" opacity="0.06"/><ellipse cx="145.25" cy="178.7" rx="17.08" ry="8.41"
      transform="rotate(304.24 145.25 178.7)"
      fill="#FFE3BC" opacity="0.1"/><ellipse cx="320.74" cy="155.79" rx="33.94" ry="19.94"
      transform="rotate(36.9 320.74 155.79)"
      fill="#FFE3BC" opacity="0.09"/><ellipse cx="265.53" cy="208.03" rx="22.79" ry="14.99"
      transform="rotate(20.31 265.53 208.03)"
      fill="#FFE3BC" opacity="0.05"/><ellipse cx="124.81" cy="287.54" rx="30.11" ry="12.33"
      transform="rotate(253.31 124.81 287.54)"
      fill="#FFE3BC" opacity="0.08"/><ellipse cx="210.66" cy="365.77" rx="14.66" ry="8.14"
      transform="rotate(198.77 210.66 365.77)"
      fill="#FFE3BC" opacity="0.1"/><ellipse cx="157.6" cy="339.17" rx="26.63" ry="13.76"
      transform="rotate(226.02 157.6 339.17)"
      fill="#FFE3BC" opacity="0.07"/><ellipse cx="227.38" cy="316.68" rx="14.66" ry="7.42"
      transform="rotate(198.74 227.38 316.68)"
      fill="#FFE3BC" opacity="0.11"/><ellipse cx="276.77" cy="350.71" rx="26.23" ry="18.15"
      transform="rotate(165.11 276.77 350.71)"
      fill="#FFE3BC" opacity="0.05"/><ellipse cx="178.02" cy="294.53" rx="21.58" ry="9.55"
      transform="rotate(238.26 178.02 294.53)"
      fill="#FFE3BC" opacity="0.1"/><ellipse cx="117.18" cy="253.39" rx="31.95" ry="20.38"
      transform="rotate(268.54 117.18 253.39)"
      fill="#FFE3BC" opacity="0.11"/><ellipse cx="304.02" cy="368.21" rx="15.75" ry="9.08"
      transform="rotate(155.44 304.02 368.21)"
      fill="#FFE3BC" opacity="0.06"/><ellipse cx="126.92" cy="221.6" rx="29.26" ry="14.32"
      transform="rotate(282.99 126.92 221.6)"
      fill="#FFE3BC" opacity="0.1"/><ellipse cx="168.11" cy="243.56" rx="25.36" ry="11.45"
      transform="rotate(274.5 168.11 243.56)"
      fill="#FFE3BC" opacity="0.11"/><ellipse cx="319.8" cy="139.22" rx="33.65" ry="17.8"
      transform="rotate(32.21 319.8 139.22)"
      fill="#FFE3BC" opacity="0.12"/><ellipse cx="141.39" cy="186.1" rx="21.71" ry="10.66"
      transform="rotate(300.47 141.39 186.1)"
      fill="#FFE3BC" opacity="0.04"/><ellipse cx="169.3" cy="320.34" rx="17.42" ry="9.82"
      transform="rotate(228.92 169.3 320.34)"
      fill="#FFE3BC" opacity="0.05"/><circle cx="250" cy="250" r="151.35" fill="none"
    stroke="#FFE3BC" stroke-width="7.64" opacity="0.30"/><circle cx="250" cy="250" r="155.94" fill="none"
    stroke="#FFE3BC" stroke-width="1.4" opacity="0.55"/><path d="M115.7 316.41 Q33.18 305.31 106.39 207.29" fill="#FFE3BC"
      opacity="0.17"/><path d="M115.7 316.41 Q33.18 305.31 106.39 207.29" fill="none"
      stroke="#FFE3BC" stroke-width="3.04"
      stroke-linecap="round" opacity="0.72"/><path d="M323.41 380.61 Q320.77 476.7 215.88 395.88" fill="#FFE3BC"
      opacity="0.19"/><path d="M323.41 380.61 Q320.77 476.7 215.88 395.88" fill="none"
      stroke="#FFE3BC" stroke-width="2.61"
      stroke-linecap="round" opacity="0.57"/><path d="M279.9 103.19 Q339.61 44.02 350.6 138.98" fill="#FFE3BC"
      opacity="0.14"/><path d="M279.9 103.19 Q339.61 44.02 350.6 138.98" fill="none"
      stroke="#FFE3BC" stroke-width="2.68"
      stroke-linecap="round" opacity="0.54"/><path d="M395.95 216.15 Q482.72 245.71 396.35 282.05" fill="#FFE3BC"
      opacity="0.13"/><path d="M395.95 216.15 Q482.72 245.71 396.35 282.05" fill="none"
      stroke="#FFE3BC" stroke-width="2.35"
      stroke-linecap="round" opacity="0.8"/>
</svg>