<svg xmlns="http://www.w3.org/2000/svg" viewBox="0 0 500 500" width="500" height="500">
  <defs>
    <radialGradient id="sky1436" cx="50%" cy="50%" r="72%">
      <stop offset="0%" stop-color="#5C1A0E" stop-opacity="0.32"/>
      <stop offset="100%" stop-color="#160806" stop-opacity="1"/>
    </radialGradient>
    <radialGradient id="glow1436">
      <stop offset="0%" stop-color="#FFD0B8" stop-opacity="0.55"/>
      <stop offset="28%" stop-color="#FF6242" stop-opacity="0.26"/>
      <stop offset="62%" stop-color="#5C1A0E" stop-opacity="0.12"/>
      <stop offset="100%" stop-color="#5C1A0E" stop-opacity="0"/>
    </radialGradient>
    <!--
      主体：临边昏暗。恒星的边比心暗，因为你在边上看到的是更外、更冷的一层。
      白心收在 10% 以内 —— 放到 18% 时，A/F 这些本来就近白的光谱型
      会把整颗星糊成一个白球，光谱型这个特征就白设了。
    -->
    <radialGradient id="body1436" cx="42%" cy="38%" r="74%">
      <stop offset="0%" stop-color="#FFFFFF"/>
      <stop offset="10%" stop-color="#FFD0B8"/>
      <stop offset="44%" stop-color="#FF6242"/>
      <stop offset="100%" stop-color="#5C1A0E"/>
    </radialGradient>
    <!-- 光束的衰减：以星为心，所以两道束共用一条渐变，且与角度无关 -->
    <radialGradient id="beam1436" cx="250" cy="250" r="448.6"
                    gradientUnits="userSpaceOnUse">
      <stop offset="0%" stop-color="#FFFFFF" stop-opacity="0.85"/>
      <stop offset="22%" stop-color="#FFD0B8" stop-opacity="0.4"/>
      <stop offset="60%" stop-color="#FF6242" stop-opacity="0.12"/>
      <stop offset="100%" stop-color="#FF6242" stop-opacity="0"/>
    </radialGradient>
    <linearGradient id="disk1436" x1="0" y1="0" x2="1" y2="0">
      <stop offset="0%" stop-color="#FF6242"/>
      <stop offset="35%" stop-color="#FFD0B8"/>
      <stop offset="65%" stop-color="#FFFFFF"/>
      <stop offset="100%" stop-color="#FF6242"/>
    </linearGradient>
  </defs>

  <!-- 满幅。没有留白边、没有题记条 —— 画面就是画面 -->
  <rect width="500" height="500" fill="#160806"/>
  <rect width="500" height="500" fill="url(#sky1436)"/>
  <circle cx="33.66" cy="211.52" r="0.4" fill="#FFFFFF" opacity="0.18"/><circle cx="428.57" cy="394.74" r="1.46" fill="#FFFFFF" opacity="0.53"/><circle cx="489.24" cy="156.52" r="0.6" fill="#FFFFFF" opacity="0.25"/><circle cx="86.05" cy="280.08" r="1.17" fill="#FFFFFF" opacity="0.43"/><circle cx="3.75" cy="490.93" r="0.44" fill="#FFFFFF" opacity="0.19"/><circle cx="477.94" cy="281.44" r="0.56" fill="#FFFFFF" opacity="0.23"/><circle cx="295.82" cy="266.49" r="1.82" fill="#FF6242" opacity="0.64"/><circle cx="160.82" cy="467.42" r="1.48" fill="#FFFFFF" opacity="0.53"/><circle cx="20.77" cy="46.36" r="0.74" fill="#FFFFFF" opacity="0.29"/><circle cx="157.62" cy="157.21" r="0.61" fill="#FF6242" opacity="0.25"/><circle cx="80.08" cy="372.77" r="0.49" fill="#FFFFFF" opacity="0.21"/><circle cx="117.93" cy="39.58" r="0.8" fill="#FFFFFF" opacity="0.31"/><circle cx="294.51" cy="304.61" r="0.41" fill="#FF6242" opacity="0.18"/><circle cx="408.95" cy="278.21" r="1.34" fill="#FFFFFF" opacity="0.49"/><circle cx="423.61" cy="69.74" r="0.43" fill="#FF6242" opacity="0.19"/><circle cx="359.02" cy="476.35" r="0.4" fill="#FFFFFF" opacity="0.18"/><circle cx="444.4" cy="75.71" r="1.92" fill="#FFFFFF" opacity="0.68"/><circle cx="474.96" cy="155.96" r="0.68" fill="#FF6242" opacity="0.27"/><circle cx="194.41" cy="469.56" r="1.53" fill="#FFFFFF" opacity="0.55"/><circle cx="79.05" cy="50.98" r="0.76" fill="#FFFFFF" opacity="0.3"/><circle cx="397.62" cy="357.32" r="0.4" fill="#FFFFFF" opacity="0.18"/><circle cx="331.82" cy="401.78" r="0.59" fill="#FF6242" opacity="0.24"/><circle cx="169.6" cy="0.79" r="0.9" fill="#FFFFFF" opacity="0.34"/><circle cx="408.86" cy="148.36" r="2.27" fill="#FFFFFF" opacity="0.79"/><path d="M396.37 148.36 L408.86 147.22 L421.35 148.36 L408.86 149.5Z"
      fill="#FFFFFF" opacity="0.4"/>
    <path d="M408.86 135.87 L410 148.36 L408.86 160.85000000000002 L407.72 148.36Z"
      fill="#FFFFFF" opacity="0.4"/><circle cx="74.98" cy="259.78" r="0.46" fill="#FF6242" opacity="0.2"/><circle cx="102.86" cy="320.54" r="0.98" fill="#FF6242" opacity="0.37"/><circle cx="465.5" cy="211.42" r="0.87" fill="#FFFFFF" opacity="0.33"/><circle cx="380" cy="125.58" r="0.42" fill="#FFFFFF" opacity="0.19"/><circle cx="231.61" cy="97.89" r="0.95" fill="#FFFFFF" opacity="0.36"/><circle cx="248.58" cy="449.86" r="0.98" fill="#FFFFFF" opacity="0.37"/><circle cx="119.81" cy="75.26" r="1.51" fill="#FFFFFF" opacity="0.54"/><circle cx="327.86" cy="303.4" r="0.52" fill="#FFFFFF" opacity="0.22"/><circle cx="63.78" cy="386.39" r="0.41" fill="#FFFFFF" opacity="0.18"/><circle cx="265.34" cy="53.4" r="1.63" fill="#FFFFFF" opacity="0.58"/>

  <!-- 辉光垫在主体下面：先有光，才有轮廓 -->
  <circle cx="250" cy="250" r="327.83" fill="url(#glow1436)"/>
  <circle cx="250" cy="250" r="172.54" fill="url(#body1436)"/><ellipse cx="247.07" cy="182.36" rx="33.77" ry="19.15"
      transform="rotate(357.52 247.07 182.36)"
      fill="#FFD0B8" opacity="0.11"/><ellipse cx="301.41" cy="133.62" rx="17.15" ry="11.95"
      transform="rotate(23.83 301.41 133.62)"
      fill="#FFD0B8" opacity="0.07"/><ellipse cx="197.88" cy="136.48" rx="33.96" ry="22.59"
      transform="rotate(335.34 197.88 136.48)"
      fill="#FFD0B8" opacity="0.1"/><ellipse cx="384.01" cy="232.26" rx="34.03" ry="14.7"
      transform="rotate(82.46 384.01 232.26)"
      fill="#FFD0B8" opacity="0.05"/><ellipse cx="295.91" cy="289.28" rx="19.01" ry="7.81"
      transform="rotate(130.55 295.91 289.28)"
      fill="#FFD0B8" opacity="0.08"/><ellipse cx="301.1" cy="259.57" rx="23.6" ry="11.41"
      transform="rotate(100.61 301.1 259.57)"
      fill="#FFD0B8" opacity="0.09"/><ellipse cx="157.47" cy="310.59" rx="34.35" ry="23.6"
      transform="rotate(236.78 157.47 310.59)"
      fill="#FFD0B8" opacity="0.04"/><ellipse cx="314.54" cy="277.67" rx="29.91" ry="13.11"
      transform="rotate(113.21 314.54 277.67)"
      fill="#FFD0B8" opacity="0.05"/><ellipse cx="181.67" cy="190.52" rx="38.92" ry="19.97"
      transform="rotate(311.04 181.67 190.52)"
      fill="#FFD0B8" opacity="0.07"/><ellipse cx="230.9" cy="130.37" rx="22.77" ry="15.16"
      transform="rotate(350.93 230.9 130.37)"
      fill="#FFD0B8" opacity="0.08"/><ellipse cx="315.75" cy="115.98" rx="28.61" ry="18.05"
      transform="rotate(26.13 315.75 115.98)"
      fill="#FFD0B8" opacity="0.08"/><ellipse cx="374.69" cy="181.55" rx="30.07" ry="12.1"
      transform="rotate(61.24 374.69 181.55)"
      fill="#FFD0B8" opacity="0.04"/><ellipse cx="196.44" cy="202.39" rx="35.56" ry="20.84"
      transform="rotate(311.64 196.44 202.39)"
      fill="#FFD0B8" opacity="0.08"/><ellipse cx="221" cy="286.37" rx="35.6" ry="19.04"
      transform="rotate(218.57 221 286.37)"
      fill="#FFD0B8" opacity="0.05"/><ellipse cx="346.11" cy="354.37" rx="20.88" ry="8.41"
      transform="rotate(137.36 346.11 354.37)"
      fill="#FFD0B8" opacity="0.09"/><ellipse cx="255.5" cy="217.02" rx="15.66" ry="6.63"
      transform="rotate(9.47 255.5 217.02)"
      fill="#FFD0B8" opacity="0.05"/><ellipse cx="221.86" cy="377.93" rx="27.23" ry="17.32"
      transform="rotate(192.41 221.86 377.93)"
      fill="#FFD0B8" opacity="0.08"/><ellipse cx="342.44" cy="269.73" rx="37.84" ry="20.36"
      transform="rotate(102.05 342.44 269.73)"
      fill="#FFD0B8" opacity="0.07"/><ellipse cx="334.09" cy="221.42" rx="25.89" ry="18.04"
      transform="rotate(71.23 334.09 221.42)"
      fill="#FFD0B8" opacity="0.05"/><ellipse cx="364.17" cy="334.68" rx="23.25" ry="10.53"
      transform="rotate(126.57 364.17 334.68)"
      fill="#FFD0B8" opacity="0.04"/><ellipse cx="263.8" cy="147.94" rx="20.98" ry="13.04"
      transform="rotate(7.7 263.8 147.94)"
      fill="#FFD0B8" opacity="0.06"/><ellipse cx="247.81" cy="388.53" rx="37.78" ry="15.63"
      transform="rotate(180.91 247.81 388.53)"
      fill="#FFD0B8" opacity="0.06"/><ellipse cx="303.32" cy="336.24" rx="25.62" ry="16.28"
      transform="rotate(148.28 303.32 336.24)"
      fill="#FFD0B8" opacity="0.05"/><ellipse cx="203.89" cy="158.49" rx="22.1" ry="11.35"
      transform="rotate(333.26 203.89 158.49)"
      fill="#FFD0B8" opacity="0.08"/><ellipse cx="175.59" cy="312.13" rx="25.24" ry="15.46"
      transform="rotate(230.14 175.59 312.13)"
      fill="#FFD0B8" opacity="0.05"/><ellipse cx="214.49" cy="329.49" rx="36.19" ry="19.93"
      transform="rotate(204.07 214.49 329.49)"
      fill="#FFD0B8" opacity="0.06"/><circle cx="250" cy="250" r="170.81" fill="none"
    stroke="#FFD0B8" stroke-width="8.63" opacity="0.30"/><circle cx="250" cy="250" r="175.99" fill="none"
    stroke="#FFD0B8" stroke-width="1.4" opacity="0.55"/><path d="M316.27 94.44 Q409.83 22.38 381.78 144.06" fill="#FFD0B8"
      opacity="0.17"/><path d="M316.27 94.44 Q409.83 22.38 381.78 144.06" fill="none"
      stroke="#FFD0B8" stroke-width="1.93"
      stroke-linecap="round" opacity="0.7"/><path d="M405.57 183.75 Q470.67 206.84 410.81 302.25" fill="#FFD0B8"
      opacity="0.18"/><path d="M405.57 183.75 Q470.67 206.84 410.81 302.25" fill="none"
      stroke="#FFD0B8" stroke-width="3.27"
      stroke-linecap="round" opacity="0.78"/><path d="M307.36 90.94 Q395.69 15.31 398.49 169.11" fill="#FFD0B8"
      opacity="0.1"/><path d="M307.36 90.94 Q395.69 15.31 398.49 169.11" fill="none"
      stroke="#FFD0B8" stroke-width="3.93"
      stroke-linecap="round" opacity="0.75"/><path d="M245.2 80.98 Q300.42 -25.45 306.57 90.66" fill="#FFD0B8"
      opacity="0.12"/><path d="M245.2 80.98 Q300.42 -25.45 306.57 90.66" fill="none"
      stroke="#FFD0B8" stroke-width="3.03"
      stroke-linecap="round" opacity="0.75"/>
</svg>