<svg xmlns="http://www.w3.org/2000/svg" viewBox="0 0 500 500" width="500" height="500">
  <defs>
    <radialGradient id="sky1619" cx="50%" cy="50%" r="72%">
      <stop offset="0%" stop-color="#6B4712" stop-opacity="0.3"/>
      <stop offset="100%" stop-color="#120E0C" stop-opacity="1"/>
    </radialGradient>
    <radialGradient id="glow1619">
      <stop offset="0%" stop-color="#FFF3D0" stop-opacity="0.55"/>
      <stop offset="28%" stop-color="#FFC95C" stop-opacity="0.26"/>
      <stop offset="62%" stop-color="#6B4712" stop-opacity="0.12"/>
      <stop offset="100%" stop-color="#6B4712" stop-opacity="0"/>
    </radialGradient>
    <!--
      主体：临边昏暗。恒星的边比心暗，因为你在边上看到的是更外、更冷的一层。
      白心收在 10% 以内 —— 放到 18% 时，A/F 这些本来就近白的光谱型
      会把整颗星糊成一个白球，光谱型这个特征就白设了。
    -->
    <radialGradient id="body1619" cx="42%" cy="38%" r="74%">
      <stop offset="0%" stop-color="#FFFFFF"/>
      <stop offset="10%" stop-color="#FFF3D0"/>
      <stop offset="44%" stop-color="#FFC95C"/>
      <stop offset="100%" stop-color="#6B4712"/>
    </radialGradient>
    <!-- 光束的衰减：以星为心，所以两道束共用一条渐变，且与角度无关 -->
    <radialGradient id="beam1619" cx="250" cy="250" r="329.16"
                    gradientUnits="userSpaceOnUse">
      <stop offset="0%" stop-color="#FFFFFF" stop-opacity="0.85"/>
      <stop offset="22%" stop-color="#FFF3D0" stop-opacity="0.4"/>
      <stop offset="60%" stop-color="#FFC95C" stop-opacity="0.12"/>
      <stop offset="100%" stop-color="#FFC95C" stop-opacity="0"/>
    </radialGradient>
    <linearGradient id="disk1619" x1="0" y1="0" x2="1" y2="0">
      <stop offset="0%" stop-color="#FFC95C"/>
      <stop offset="35%" stop-color="#FFF3D0"/>
      <stop offset="65%" stop-color="#FFFFFF"/>
      <stop offset="100%" stop-color="#FFC95C"/>
    </linearGradient>
  </defs>

  <!-- 满幅。没有留白边、没有题记条 —— 画面就是画面 -->
  <rect width="500" height="500" fill="#120E0C"/>
  <rect width="500" height="500" fill="url(#sky1619)"/>
  <circle cx="353.04" cy="481.1" r="0.99" fill="#FFFFFF" opacity="0.37"/><circle cx="436.38" cy="185.3" r="0.89" fill="#FFFFFF" opacity="0.34"/><circle cx="228.14" cy="265.06" r="1.71" fill="#FFFFFF" opacity="0.61"/><circle cx="385.48" cy="339.17" r="1.29" fill="#FFFFFF" opacity="0.47"/><circle cx="365.61" cy="283.24" r="1.82" fill="#FFFFFF" opacity="0.64"/><circle cx="163.07" cy="206.16" r="1.59" fill="#FFFFFF" opacity="0.57"/><circle cx="268.93" cy="366.01" r="0.45" fill="#FFFFFF" opacity="0.2"/><circle cx="304.06" cy="407.21" r="1.82" fill="#FFFFFF" opacity="0.64"/><circle cx="47.07" cy="25.28" r="0.98" fill="#FFC95C" opacity="0.37"/><circle cx="155.64" cy="362.88" r="1.53" fill="#FFFFFF" opacity="0.55"/><circle cx="463.56" cy="47.22" r="0.41" fill="#FFC95C" opacity="0.18"/><circle cx="290.88" cy="254.99" r="0.5" fill="#FFC95C" opacity="0.21"/><circle cx="178.93" cy="344.47" r="0.43" fill="#FFFFFF" opacity="0.19"/><circle cx="163.08" cy="418.12" r="1.21" fill="#FFFFFF" opacity="0.44"/><circle cx="390.45" cy="301.11" r="0.57" fill="#FFC95C" opacity="0.24"/><circle cx="497.19" cy="291.77" r="0.7" fill="#FFFFFF" opacity="0.28"/><circle cx="400.67" cy="59.74" r="0.46" fill="#FFFFFF" opacity="0.2"/><circle cx="25.98" cy="101.65" r="1.46" fill="#FFFFFF" opacity="0.53"/><circle cx="251.88" cy="319.86" r="1.6" fill="#FFFFFF" opacity="0.57"/><circle cx="302.46" cy="492.89" r="1.96" fill="#FFFFFF" opacity="0.69"/><circle cx="266.19" cy="355.06" r="1.71" fill="#FFFFFF" opacity="0.61"/><circle cx="272.59" cy="432.55" r="1.11" fill="#FFFFFF" opacity="0.41"/><circle cx="458" cy="51.44" r="0.41" fill="#FFFFFF" opacity="0.18"/><circle cx="464.41" cy="345.91" r="0.49" fill="#FFFFFF" opacity="0.21"/><circle cx="36.75" cy="137.3" r="0.55" fill="#FFC95C" opacity="0.23"/><circle cx="49.14" cy="405.68" r="0.67" fill="#FFFFFF" opacity="0.27"/><circle cx="161.27" cy="464.85" r="0.65" fill="#FFFFFF" opacity="0.26"/><circle cx="316.97" cy="343.17" r="0.58" fill="#FFFFFF" opacity="0.24"/><circle cx="29.87" cy="74.76" r="1.66" fill="#FFFFFF" opacity="0.59"/><circle cx="141.74" cy="160.87" r="0.62" fill="#FFFFFF" opacity="0.25"/><circle cx="276.99" cy="350.62" r="1.48" fill="#FFC95C" opacity="0.53"/><circle cx="186.21" cy="52.3" r="0.41" fill="#FFFFFF" opacity="0.18"/><circle cx="123.03" cy="197.39" r="0.44" fill="#FFC95C" opacity="0.19"/><circle cx="498.88" cy="181.62" r="2.24" fill="#FFC95C" opacity="0.78"/><path d="M486.56 181.62 L498.88 180.5 L511.2 181.62 L498.88 182.74Z"
      fill="#FFFFFF" opacity="0.4"/>
    <path d="M498.88 169.3 L500 181.62 L498.88 193.94 L497.76 181.62Z"
      fill="#FFFFFF" opacity="0.4"/><circle cx="96.19" cy="201.92" r="0.49" fill="#FFFFFF" opacity="0.21"/><circle cx="150.13" cy="160.91" r="1.43" fill="#FFFFFF" opacity="0.51"/><circle cx="144.02" cy="120.72" r="1.6" fill="#FFFFFF" opacity="0.57"/><circle cx="360.33" cy="44.38" r="1.12" fill="#FFFFFF" opacity="0.42"/><circle cx="409.36" cy="154.19" r="0.4" fill="#FFC95C" opacity="0.18"/><circle cx="335.41" cy="250.44" r="0.58" fill="#FFFFFF" opacity="0.24"/>

  <!-- 辉光垫在主体下面：先有光，才有轮廓 -->
  <circle cx="250" cy="250" r="240.54" fill="url(#glow1619)"/>
  <ellipse cx="250" cy="250" rx="126.6" ry="77.64"
      transform="rotate(7.42 250 250)" fill="none"
      stroke="#FFC95C"
      stroke-width="20.26"
      opacity="0.3"/><ellipse cx="250" cy="250" rx="126.6" ry="77.64"
      transform="rotate(7.42 250 250)" fill="none"
      stroke="#FFF3D0" stroke-width="1.4" opacity="0.5"/><ellipse cx="250" cy="250" rx="91.15" ry="81.8"
      transform="rotate(7.42 250 250)" fill="none"
      stroke="#FFF3D0"
      stroke-width="15.19"
      opacity="0.24"/><ellipse cx="250" cy="250" rx="91.15" ry="81.8"
      transform="rotate(7.42 250 250)" fill="none"
      stroke="#FFF3D0" stroke-width="1.4" opacity="0.38"/><path d="M250 250 L418.22 271.91" stroke="#FFF3D0" stroke-width="2"
      opacity="0.16" stroke-linecap="round"/><path d="M250 250 L81.78 228.09" stroke="#FFF3D0" stroke-width="2"
      opacity="0.16" stroke-linecap="round"/><circle cx="250" cy="250" r="7.6" fill="#FFFFFF" opacity="0.95"/><path d="M186.7 250 L250 247.47 L313.3 250 L250 252.53Z"
      fill="#FFFFFF" opacity="0.5"/>
    <path d="M250 186.7 L252.53 250 L250 313.3 L247.47 250Z"
      fill="#FFFFFF" opacity="0.5"/>
</svg>