<svg xmlns="http://www.w3.org/2000/svg" viewBox="0 0 500 500" width="500" height="500">
  <defs>
    <radialGradient id="sky1788" cx="50%" cy="50%" r="72%">
      <stop offset="0%" stop-color="#2C3F6E" stop-opacity="0.3"/>
      <stop offset="100%" stop-color="#080C18" stop-opacity="1"/>
    </radialGradient>
    <radialGradient id="glow1788">
      <stop offset="0%" stop-color="#FFFFFF" stop-opacity="0.55"/>
      <stop offset="28%" stop-color="#BBD2F5" stop-opacity="0.26"/>
      <stop offset="62%" stop-color="#2C3F6E" stop-opacity="0.12"/>
      <stop offset="100%" stop-color="#2C3F6E" stop-opacity="0"/>
    </radialGradient>
    <!--
      主体：临边昏暗。恒星的边比心暗，因为你在边上看到的是更外、更冷的一层。
      白心收在 10% 以内 —— 放到 18% 时，A/F 这些本来就近白的光谱型
      会把整颗星糊成一个白球，光谱型这个特征就白设了。
    -->
    <radialGradient id="body1788" cx="42%" cy="38%" r="74%">
      <stop offset="0%" stop-color="#FFFFFF"/>
      <stop offset="10%" stop-color="#FFFFFF"/>
      <stop offset="44%" stop-color="#BBD2F5"/>
      <stop offset="100%" stop-color="#2C3F6E"/>
    </radialGradient>
    <!-- 光束的衰减：以星为心，所以两道束共用一条渐变，且与角度无关 -->
    <radialGradient id="beam1788" cx="250" cy="250" r="375.96"
                    gradientUnits="userSpaceOnUse">
      <stop offset="0%" stop-color="#FFFFFF" stop-opacity="0.85"/>
      <stop offset="22%" stop-color="#FFFFFF" stop-opacity="0.4"/>
      <stop offset="60%" stop-color="#BBD2F5" stop-opacity="0.12"/>
      <stop offset="100%" stop-color="#BBD2F5" stop-opacity="0"/>
    </radialGradient>
    <linearGradient id="disk1788" x1="0" y1="0" x2="1" y2="0">
      <stop offset="0%" stop-color="#BBD2F5"/>
      <stop offset="35%" stop-color="#FFFFFF"/>
      <stop offset="65%" stop-color="#FFFFFF"/>
      <stop offset="100%" stop-color="#BBD2F5"/>
    </linearGradient>
  </defs>

  <!-- 满幅。没有留白边、没有题记条 —— 画面就是画面 -->
  <rect width="500" height="500" fill="#080C18"/>
  <rect width="500" height="500" fill="url(#sky1788)"/>
  <circle cx="115.77" cy="248.25" r="1.16" fill="#BBD2F5" opacity="0.43"/><circle cx="301.75" cy="457.85" r="0.4" fill="#FFFFFF" opacity="0.18"/><circle cx="3.25" cy="105.51" r="0.71" fill="#FFFFFF" opacity="0.28"/><circle cx="320.47" cy="148.34" r="0.59" fill="#FFFFFF" opacity="0.24"/><circle cx="75.06" cy="20.15" r="0.44" fill="#FFFFFF" opacity="0.19"/><circle cx="78.76" cy="189.22" r="0.64" fill="#FFFFFF" opacity="0.26"/><circle cx="18.37" cy="283.91" r="0.52" fill="#FFFFFF" opacity="0.22"/><circle cx="211.97" cy="115.88" r="0.44" fill="#FFFFFF" opacity="0.19"/><circle cx="180.44" cy="165.85" r="0.4" fill="#FFFFFF" opacity="0.18"/><circle cx="89.36" cy="308.67" r="1.31" fill="#FFFFFF" opacity="0.48"/><circle cx="43.35" cy="137.47" r="0.4" fill="#BBD2F5" opacity="0.18"/><circle cx="91.47" cy="255.82" r="0.44" fill="#FFFFFF" opacity="0.19"/><circle cx="198.29" cy="78.94" r="0.87" fill="#FFFFFF" opacity="0.33"/><circle cx="433.35" cy="301.01" r="0.4" fill="#FFFFFF" opacity="0.18"/><circle cx="473.87" cy="254.24" r="0.43" fill="#FFFFFF" opacity="0.19"/><circle cx="135.65" cy="400.05" r="0.44" fill="#FFFFFF" opacity="0.19"/><circle cx="468.4" cy="433.59" r="0.89" fill="#FFFFFF" opacity="0.34"/><circle cx="490.17" cy="326.62" r="0.4" fill="#FFFFFF" opacity="0.18"/><circle cx="135.89" cy="432.64" r="1.31" fill="#FFFFFF" opacity="0.48"/><circle cx="159.43" cy="482.03" r="0.4" fill="#FFFFFF" opacity="0.18"/><circle cx="287.59" cy="54.8" r="0.42" fill="#FFFFFF" opacity="0.19"/><circle cx="57.51" cy="143.98" r="1.44" fill="#FFFFFF" opacity="0.52"/><circle cx="391.94" cy="400.22" r="0.42" fill="#FFFFFF" opacity="0.19"/><circle cx="218.37" cy="125.54" r="0.4" fill="#FFFFFF" opacity="0.18"/><circle cx="474.48" cy="57.48" r="0.48" fill="#FFFFFF" opacity="0.2"/><circle cx="214.7" cy="480.84" r="1.82" fill="#BBD2F5" opacity="0.64"/><circle cx="93.7" cy="367.7" r="1.88" fill="#BBD2F5" opacity="0.66"/><circle cx="457.13" cy="8.06" r="1.71" fill="#FFFFFF" opacity="0.61"/><circle cx="22.16" cy="495.92" r="1.24" fill="#FFFFFF" opacity="0.45"/><circle cx="461.17" cy="373.97" r="1.27" fill="#FFFFFF" opacity="0.46"/><circle cx="498.08" cy="227.4" r="1.95" fill="#BBD2F5" opacity="0.69"/><circle cx="158.2" cy="437.29" r="0.4" fill="#FFFFFF" opacity="0.18"/><circle cx="461.73" cy="361.19" r="0.41" fill="#BBD2F5" opacity="0.18"/><circle cx="191.8" cy="65.8" r="1.6" fill="#BBD2F5" opacity="0.57"/><circle cx="114.37" cy="192" r="2.08" fill="#FFFFFF" opacity="0.73"/><path d="M102.93 192 L114.37 190.96 L125.81 192 L114.37 193.04Z"
      fill="#FFFFFF" opacity="0.4"/>
    <path d="M114.37 180.56 L115.41 192 L114.37 203.44 L113.33 192Z"
      fill="#FFFFFF" opacity="0.4"/><circle cx="220.95" cy="25.33" r="0.84" fill="#FFFFFF" opacity="0.33"/><circle cx="122.56" cy="402.97" r="0.75" fill="#FFFFFF" opacity="0.29"/><circle cx="76.8" cy="200.07" r="0.44" fill="#BBD2F5" opacity="0.19"/><circle cx="5.1" cy="184.01" r="0.52" fill="#FFFFFF" opacity="0.22"/><circle cx="35.69" cy="315.34" r="1.51" fill="#FFFFFF" opacity="0.54"/>

  <!-- 辉光垫在主体下面：先有光，才有轮廓 -->
  <circle cx="250" cy="250" r="274.74" fill="url(#glow1788)"/>
  <ellipse cx="250" cy="250" rx="144.6" ry="114.93"
      transform="rotate(115.47 250 250)" fill="none"
      stroke="#BBD2F5"
      stroke-width="23.14"
      opacity="0.3"/><ellipse cx="250" cy="250" rx="144.6" ry="114.93"
      transform="rotate(115.47 250 250)" fill="none"
      stroke="#FFFFFF" stroke-width="1.4" opacity="0.5"/><ellipse cx="250" cy="250" rx="104.11" ry="65.78"
      transform="rotate(115.47 250 250)" fill="none"
      stroke="#FFFFFF"
      stroke-width="17.35"
      opacity="0.24"/><ellipse cx="250" cy="250" rx="104.11" ry="65.78"
      transform="rotate(115.47 250 250)" fill="none"
      stroke="#FFFFFF" stroke-width="1.4" opacity="0.38"/><ellipse cx="250" cy="250" rx="63.62" ry="37.86"
      transform="rotate(115.47 250 250)" fill="none"
      stroke="#FFFFFF"
      stroke-width="11.57"
      opacity="0.18"/><ellipse cx="250" cy="250" rx="63.62" ry="37.86"
      transform="rotate(115.47 250 250)" fill="none"
      stroke="#FFFFFF" stroke-width="1.4" opacity="0.26"/><path d="M250 250 L166.67 424.93" stroke="#FFFFFF" stroke-width="2"
      opacity="0.16" stroke-linecap="round"/><path d="M250 250 L333.33 75.07" stroke="#FFFFFF" stroke-width="2"
      opacity="0.16" stroke-linecap="round"/><circle cx="250" cy="250" r="8.68" fill="#FFFFFF" opacity="0.95"/><path d="M177.7 250 L250 247.11 L322.3 250 L250 252.89Z"
      fill="#FFFFFF" opacity="0.5"/>
    <path d="M250 177.7 L252.89 250 L250 322.3 L247.11 250Z"
      fill="#FFFFFF" opacity="0.5"/>
</svg>