<svg xmlns="http://www.w3.org/2000/svg" viewBox="0 0 500 500" width="500" height="500">
  <defs>
    <radialGradient id="sky726" cx="50%" cy="50%" r="72%">
      <stop offset="0%" stop-color="#6B300E" stop-opacity="0.3"/>
      <stop offset="100%" stop-color="#140C08" stop-opacity="1"/>
    </radialGradient>
    <radialGradient id="glow726">
      <stop offset="0%" stop-color="#FFE3BC" stop-opacity="0.55"/>
      <stop offset="28%" stop-color="#FF9A3D" stop-opacity="0.26"/>
      <stop offset="62%" stop-color="#6B300E" stop-opacity="0.12"/>
      <stop offset="100%" stop-color="#6B300E" stop-opacity="0"/>
    </radialGradient>
    <!--
      主体：临边昏暗。恒星的边比心暗，因为你在边上看到的是更外、更冷的一层。
      白心收在 10% 以内 —— 放到 18% 时，A/F 这些本来就近白的光谱型
      会把整颗星糊成一个白球，光谱型这个特征就白设了。
    -->
    <radialGradient id="body726" cx="42%" cy="38%" r="74%">
      <stop offset="0%" stop-color="#FFFFFF"/>
      <stop offset="10%" stop-color="#FFE3BC"/>
      <stop offset="44%" stop-color="#FF9A3D"/>
      <stop offset="100%" stop-color="#6B300E"/>
    </radialGradient>
    <!-- 光束的衰减：以星为心，所以两道束共用一条渐变，且与角度无关 -->
    <radialGradient id="beam726" cx="250" cy="250" r="358.41"
                    gradientUnits="userSpaceOnUse">
      <stop offset="0%" stop-color="#FFFFFF" stop-opacity="0.85"/>
      <stop offset="22%" stop-color="#FFE3BC" stop-opacity="0.4"/>
      <stop offset="60%" stop-color="#FF9A3D" stop-opacity="0.12"/>
      <stop offset="100%" stop-color="#FF9A3D" stop-opacity="0"/>
    </radialGradient>
    <linearGradient id="disk726" x1="0" y1="0" x2="1" y2="0">
      <stop offset="0%" stop-color="#FF9A3D"/>
      <stop offset="35%" stop-color="#FFE3BC"/>
      <stop offset="65%" stop-color="#FFFFFF"/>
      <stop offset="100%" stop-color="#FF9A3D"/>
    </linearGradient>
  </defs>

  <!-- 满幅。没有留白边、没有题记条 —— 画面就是画面 -->
  <rect width="500" height="500" fill="#140C08"/>
  <rect width="500" height="500" fill="url(#sky726)"/>
  <circle cx="465.25" cy="378.85" r="1.3" fill="#FFFFFF" opacity="0.47"/><circle cx="317.39" cy="408.07" r="1.79" fill="#FF9A3D" opacity="0.63"/><circle cx="67.89" cy="457.42" r="1.29" fill="#FFFFFF" opacity="0.47"/><circle cx="376.54" cy="83.25" r="0.57" fill="#FFFFFF" opacity="0.24"/><circle cx="273.43" cy="7.9" r="0.94" fill="#FF9A3D" opacity="0.35"/><circle cx="434.38" cy="121.48" r="0.74" fill="#FFFFFF" opacity="0.29"/><circle cx="411.62" cy="165.22" r="1.62" fill="#FFFFFF" opacity="0.58"/><circle cx="209.64" cy="341.43" r="2.05" fill="#FFFFFF" opacity="0.72"/><path d="M198.36999999999998 341.43 L209.64 340.41 L220.91 341.43 L209.64 342.45Z"
      fill="#FFFFFF" opacity="0.4"/>
    <path d="M209.64 330.16 L210.66 341.43 L209.64 352.7 L208.62 341.43Z"
      fill="#FFFFFF" opacity="0.4"/><circle cx="186.09" cy="193.34" r="0.41" fill="#FFFFFF" opacity="0.18"/><circle cx="250.44" cy="159.33" r="1.04" fill="#FFFFFF" opacity="0.39"/><circle cx="157.01" cy="302.82" r="0.41" fill="#FFFFFF" opacity="0.18"/><circle cx="222.42" cy="158.08" r="1.51" fill="#FFFFFF" opacity="0.54"/><circle cx="111.7" cy="403.46" r="1.35" fill="#FF9A3D" opacity="0.49"/><circle cx="441.56" cy="264.64" r="0.68" fill="#FFFFFF" opacity="0.27"/><circle cx="431.92" cy="253.71" r="0.42" fill="#FFFFFF" opacity="0.19"/><circle cx="307.84" cy="406.96" r="0.63" fill="#FFFFFF" opacity="0.25"/><circle cx="246.03" cy="103.12" r="0.56" fill="#FF9A3D" opacity="0.23"/><circle cx="483.29" cy="226.6" r="0.4" fill="#FFFFFF" opacity="0.18"/><circle cx="440.98" cy="64.68" r="0.42" fill="#FFFFFF" opacity="0.19"/><circle cx="210.31" cy="236.26" r="1.35" fill="#FFFFFF" opacity="0.49"/><circle cx="450.94" cy="17.34" r="1.79" fill="#FFFFFF" opacity="0.63"/><circle cx="210.99" cy="138.94" r="0.64" fill="#FF9A3D" opacity="0.26"/><circle cx="241.88" cy="206.88" r="1.86" fill="#FFFFFF" opacity="0.66"/><circle cx="72.85" cy="452.85" r="0.44" fill="#FFFFFF" opacity="0.19"/><circle cx="301.37" cy="69.17" r="0.4" fill="#FFFFFF" opacity="0.18"/><circle cx="212.58" cy="410.46" r="0.4" fill="#FFFFFF" opacity="0.18"/><circle cx="33.79" cy="473.31" r="2.09" fill="#FF9A3D" opacity="0.73"/><path d="M22.29 473.31 L33.79 472.26 L45.29 473.31 L33.79 474.36Z"
      fill="#FFFFFF" opacity="0.4"/>
    <path d="M33.79 461.81 L34.84 473.31 L33.79 484.81 L32.74 473.31Z"
      fill="#FFFFFF" opacity="0.4"/><circle cx="211.42" cy="261.67" r="1.1" fill="#FFFFFF" opacity="0.41"/><circle cx="16.39" cy="440.27" r="0.54" fill="#FFFFFF" opacity="0.23"/><circle cx="99.62" cy="356.73" r="0.41" fill="#FFFFFF" opacity="0.18"/><circle cx="5.67" cy="313.91" r="1.18" fill="#FFFFFF" opacity="0.43"/><circle cx="150.64" cy="266.86" r="0.43" fill="#FFFFFF" opacity="0.19"/><circle cx="186.26" cy="36.27" r="0.4" fill="#FF9A3D" opacity="0.18"/><circle cx="452.21" cy="325.55" r="0.4" fill="#FFFFFF" opacity="0.18"/><circle cx="86.54" cy="42.95" r="1.06" fill="#FF9A3D" opacity="0.4"/><circle cx="200.15" cy="489.09" r="0.57" fill="#FFFFFF" opacity="0.24"/><circle cx="177.23" cy="246.07" r="0.71" fill="#FFFFFF" opacity="0.28"/><circle cx="317.49" cy="127.37" r="0.68" fill="#FFFFFF" opacity="0.27"/><circle cx="58.19" cy="30.52" r="1.71" fill="#FFFFFF" opacity="0.61"/><circle cx="216.98" cy="257.33" r="2.19" fill="#FFFFFF" opacity="0.76"/><path d="M204.92999999999998 257.33 L216.98 256.23 L229.03 257.33 L216.98 258.43Z"
      fill="#FFFFFF" opacity="0.4"/>
    <path d="M216.98 245.27999999999997 L218.08 257.33 L216.98 269.38 L215.88 257.33Z"
      fill="#FFFFFF" opacity="0.4"/>

  <!-- 辉光垫在主体下面：先有光，才有轮廓 -->
  <circle cx="250" cy="250" r="261.91" fill="url(#glow726)"/>
  <ellipse cx="250" cy="250" rx="137.85" ry="79.66"
      transform="rotate(66.81 250 250)" fill="none"
      stroke="#FF9A3D"
      stroke-width="22.06"
      opacity="0.3"/><ellipse cx="250" cy="250" rx="137.85" ry="79.66"
      transform="rotate(66.81 250 250)" fill="none"
      stroke="#FFE3BC" stroke-width="1.4" opacity="0.5"/><ellipse cx="250" cy="250" rx="99.25" ry="81.53"
      transform="rotate(66.81 250 250)" fill="none"
      stroke="#FFE3BC"
      stroke-width="16.54"
      opacity="0.24"/><ellipse cx="250" cy="250" rx="99.25" ry="81.53"
      transform="rotate(66.81 250 250)" fill="none"
      stroke="#FFE3BC" stroke-width="1.4" opacity="0.38"/><path d="M250 250 L322.74 419.79" stroke="#FFE3BC" stroke-width="2"
      opacity="0.16" stroke-linecap="round"/><path d="M250 250 L177.26 80.21" stroke="#FFE3BC" stroke-width="2"
      opacity="0.16" stroke-linecap="round"/><circle cx="250" cy="250" r="8.27" fill="#FFFFFF" opacity="0.95"/><path d="M181.07 250 L250 247.24 L318.93 250 L250 252.76Z"
      fill="#FFFFFF" opacity="0.5"/>
    <path d="M250 181.07 L252.76 250 L250 318.93 L247.24 250Z"
      fill="#FFFFFF" opacity="0.5"/>
</svg>