<svg xmlns="http://www.w3.org/2000/svg" viewBox="0 0 500 500" width="500" height="500">
  <defs>
    <radialGradient id="sky27" cx="50%" cy="42%" r="76%">
      <stop offset="0%" stop-color="#4C3D14" stop-opacity="0.55"/>
      <stop offset="100%" stop-color="#0C0A06" stop-opacity="1"/>
    </radialGradient>
    <radialGradient id="orb27">
      <stop offset="0%" stop-color="#FFF3D2" stop-opacity="0.85"/>
      <stop offset="40%" stop-color="#D8C06A" stop-opacity="0.28"/>
      <stop offset="100%" stop-color="#D8C06A" stop-opacity="0"/>
    </radialGradient>
    <radialGradient id="neb27" cx="50%" cy="50%" r="50%">
      <stop offset="0%" stop-color="#D8C06A" stop-opacity="0.30"/>
      <stop offset="100%" stop-color="#D8C06A" stop-opacity="0"/>
    </radialGradient>
  </defs>

  <rect width="500" height="500" fill="#0C0A06"/>
  <rect width="500" height="500" fill="url(#sky27)"/>
  <circle cx="89.43" cy="28.58" r="0.94" fill="#FFFFFF" opacity="0.35"/><circle cx="298.07" cy="99.54" r="1.68" fill="#FFFFFF" opacity="0.6"/><circle cx="413.75" cy="365.9" r="0.45" fill="#FFFFFF" opacity="0.2"/><circle cx="147.62" cy="478.41" r="0.42" fill="#FFFFFF" opacity="0.19"/><circle cx="332.18" cy="26.65" r="1.82" fill="#FFFFFF" opacity="0.64"/><circle cx="240.27" cy="210.57" r="0.4" fill="#FFFFFF" opacity="0.18"/><circle cx="202.52" cy="279.44" r="0.4" fill="#FFFFFF" opacity="0.18"/><circle cx="470.97" cy="169.34" r="0.41" fill="#FFFFFF" opacity="0.18"/><circle cx="60.82" cy="137.2" r="1.29" fill="#D8C06A" opacity="0.47"/><circle cx="332.95" cy="438.85" r="1.08" fill="#FFFFFF" opacity="0.4"/><circle cx="363.37" cy="180.17" r="0.48" fill="#D8C06A" opacity="0.21"/><circle cx="114.95" cy="406.57" r="0.61" fill="#FFFFFF" opacity="0.25"/><circle cx="242.35" cy="219.21" r="0.84" fill="#D8C06A" opacity="0.32"/><circle cx="419.89" cy="38.98" r="0.43" fill="#FFFFFF" opacity="0.19"/><circle cx="362.2" cy="76.55" r="0.45" fill="#FFFFFF" opacity="0.2"/><circle cx="196.78" cy="239.64" r="0.46" fill="#FFFFFF" opacity="0.2"/><circle cx="198.27" cy="373.48" r="0.43" fill="#FFFFFF" opacity="0.19"/><circle cx="220.76" cy="329.11" r="0.93" fill="#FFFFFF" opacity="0.35"/><circle cx="77.89" cy="25.35" r="0.42" fill="#D8C06A" opacity="0.18"/><circle cx="157.34" cy="482.3" r="2.27" fill="#FFFFFF" opacity="0.79"/><path d="M144.85 482.3 L157.34 481.16 L169.83 482.3 L157.34 483.44Z"
      fill="#FFFFFF" opacity="0.4"/>
    <path d="M157.34 469.81 L158.48 482.3 L157.34 494.79 L156.2 482.3Z"
      fill="#FFFFFF" opacity="0.4"/><circle cx="14.08" cy="84.38" r="0.58" fill="#D8C06A" opacity="0.24"/><circle cx="214.33" cy="276.08" r="0.4" fill="#D8C06A" opacity="0.18"/><circle cx="351.81" cy="436.35" r="0.54" fill="#FFFFFF" opacity="0.23"/><circle cx="151.87" cy="458.92" r="0.4" fill="#D8C06A" opacity="0.18"/><circle cx="183.55" cy="7.59" r="0.4" fill="#FFFFFF" opacity="0.18"/><circle cx="88.49" cy="299.98" r="0.67" fill="#D8C06A" opacity="0.27"/><circle cx="338.49" cy="11.88" r="0.56" fill="#FFFFFF" opacity="0.23"/><circle cx="244.31" cy="134.16" r="1.16" fill="#FFFFFF" opacity="0.43"/><circle cx="200.59" cy="239.08" r="0.73" fill="#FFFFFF" opacity="0.29"/><circle cx="61.54" cy="307.52" r="1.89" fill="#FFFFFF" opacity="0.67"/><circle cx="363.42" cy="70.1" r="0.69" fill="#D8C06A" opacity="0.27"/><circle cx="492.12" cy="102.75" r="1.81" fill="#FFFFFF" opacity="0.64"/><circle cx="109.88" cy="173.87" r="0.71" fill="#FFFFFF" opacity="0.28"/><circle cx="495.85" cy="193" r="0.81" fill="#FFFFFF" opacity="0.31"/><circle cx="306.34" cy="137.44" r="2.02" fill="#FFFFFF" opacity="0.71"/><circle cx="294.18" cy="361.05" r="0.61" fill="#FFFFFF" opacity="0.25"/><circle cx="166.87" cy="87.52" r="1.45" fill="#D8C06A" opacity="0.52"/><circle cx="19" cy="407.97" r="1.07" fill="#FFFFFF" opacity="0.4"/><circle cx="235.88" cy="424.03" r="0.7" fill="#D8C06A" opacity="0.28"/><circle cx="7.08" cy="497.53" r="0.41" fill="#FFFFFF" opacity="0.18"/><circle cx="491.66" cy="252.54" r="2.2" fill="#FFFFFF" opacity="0.77"/><path d="M479.56 252.54 L491.66 251.44 L503.76000000000005 252.54 L491.66 253.64Z"
      fill="#FFFFFF" opacity="0.4"/>
    <path d="M491.66 240.44 L492.76 252.54 L491.66 264.64 L490.56 252.54Z"
      fill="#FFFFFF" opacity="0.4"/><circle cx="429.65" cy="127.45" r="0.44" fill="#FFFFFF" opacity="0.19"/><circle cx="457.05" cy="150.31" r="0.92" fill="#FFFFFF" opacity="0.35"/><circle cx="292" cy="170.88" r="0.41" fill="#FFFFFF" opacity="0.18"/><circle cx="134.06" cy="155.95" r="0.41" fill="#FFFFFF" opacity="0.18"/><circle cx="327.9" cy="450.78" r="0.83" fill="#FFFFFF" opacity="0.32"/><circle cx="414.71" cy="93.12" r="0.4" fill="#FFFFFF" opacity="0.18"/><circle cx="436.42" cy="433.14" r="1.01" fill="#FFFFFF" opacity="0.38"/><circle cx="312.17" cy="72.05" r="1.99" fill="#FFFFFF" opacity="0.7"/><circle cx="464.07" cy="167.58" r="2.09" fill="#FFFFFF" opacity="0.73"/><path d="M452.57 167.58 L464.07 166.53 L475.57 167.58 L464.07 168.63Z"
      fill="#FFFFFF" opacity="0.4"/>
    <path d="M464.07 156.08 L465.12 167.58 L464.07 179.08 L463.02 167.58Z"
      fill="#FFFFFF" opacity="0.4"/><circle cx="437.33" cy="261.41" r="1.98" fill="#FFFFFF" opacity="0.7"/><circle cx="400.19" cy="49.98" r="0.4" fill="#D8C06A" opacity="0.18"/><circle cx="345.51" cy="29.56" r="1.13" fill="#FFFFFF" opacity="0.42"/><circle cx="198.1" cy="461.35" r="1.26" fill="#FFFFFF" opacity="0.46"/><circle cx="446.55" cy="135.82" r="0.67" fill="#FFFFFF" opacity="0.27"/><circle cx="108.22" cy="427.46" r="1.21" fill="#FFFFFF" opacity="0.44"/><circle cx="220.92" cy="9.25" r="2.07" fill="#FFFFFF" opacity="0.73"/><path d="M209.52999999999997 9.25 L220.92 8.22 L232.31 9.25 L220.92 10.28Z"
      fill="#FFFFFF" opacity="0.4"/>
    <path d="M220.92 -2.1400000000000006 L221.95 9.25 L220.92 20.64 L219.89 9.25Z"
      fill="#FFFFFF" opacity="0.4"/><circle cx="44.89" cy="432.19" r="0.76" fill="#FFFFFF" opacity="0.3"/><circle cx="219.07" cy="376.13" r="0.41" fill="#FFFFFF" opacity="0.18"/><circle cx="410.4" cy="82.64" r="1.68" fill="#D8C06A" opacity="0.6"/><circle cx="310.39" cy="218.23" r="0.83" fill="#FFFFFF" opacity="0.32"/><circle cx="9.47" cy="217.04" r="1.09" fill="#FFFFFF" opacity="0.41"/><circle cx="94.71" cy="233.66" r="0.41" fill="#FFFFFF" opacity="0.18"/><circle cx="59.15" cy="195.34" r="0.43" fill="#FFFFFF" opacity="0.19"/><circle cx="188.28" cy="458.88" r="2.03" fill="#FFFFFF" opacity="0.71"/><circle cx="313.35" cy="405.77" r="1.1" fill="#FFFFFF" opacity="0.41"/><circle cx="154.77" cy="224.05" r="0.56" fill="#D8C06A" opacity="0.23"/><circle cx="282.95" cy="100.76" r="0.41" fill="#D8C06A" opacity="0.18"/><circle cx="460.07" cy="471.99" r="0.78" fill="#FFFFFF" opacity="0.3"/><circle cx="345.22" cy="43.8" r="0.65" fill="#D8C06A" opacity="0.26"/><circle cx="466.16" cy="223.82" r="0.89" fill="#D8C06A" opacity="0.34"/><circle cx="394.13" cy="77.67" r="1.21" fill="#FFFFFF" opacity="0.45"/><circle cx="486.06" cy="277.58" r="1.08" fill="#FFFFFF" opacity="0.4"/><circle cx="331.56" cy="478.72" r="1.35" fill="#FFFFFF" opacity="0.49"/><circle cx="464.85" cy="162.1" r="1.8" fill="#FFFFFF" opacity="0.64"/><circle cx="371.85" cy="143.19" r="0.56" fill="#FFFFFF" opacity="0.23"/><circle cx="451.14" cy="356.36" r="0.8" fill="#FFFFFF" opacity="0.31"/><circle cx="98" cy="88.43" r="0.59" fill="#FFFFFF" opacity="0.24"/><circle cx="208.65" cy="347.92" r="0.41" fill="#FFFFFF" opacity="0.18"/><circle cx="55.88" cy="99.74" r="1.07" fill="#D8C06A" opacity="0.4"/><circle cx="237.9" cy="393.37" r="1.14" fill="#FFFFFF" opacity="0.42"/><circle cx="50.85" cy="165.4" r="1.1" fill="#FFFFFF" opacity="0.41"/><circle cx="203.38" cy="153.9" r="0.4" fill="#FFFFFF" opacity="0.18"/><circle cx="408.77" cy="271.28" r="1.11" fill="#FFFFFF" opacity="0.41"/><circle cx="20.35" cy="466.9" r="0.81" fill="#FFFFFF" opacity="0.32"/><circle cx="301.04" cy="61.1" r="1.41" fill="#FFFFFF" opacity="0.51"/><circle cx="317.46" cy="119.42" r="0.52" fill="#D8C06A" opacity="0.22"/><circle cx="247.33" cy="371.28" r="0.4" fill="#D8C06A" opacity="0.18"/><circle cx="39.12" cy="62" r="0.41" fill="#FFFFFF" opacity="0.18"/><circle cx="260.37" cy="77.72" r="1.02" fill="#FFFFFF" opacity="0.38"/><circle cx="135.75" cy="116.43" r="0.79" fill="#FFFFFF" opacity="0.31"/><circle cx="152.88" cy="18.12" r="0.41" fill="#FFFFFF" opacity="0.18"/><circle cx="274.63" cy="283.5" r="0.66" fill="#FFFFFF" opacity="0.26"/><circle cx="282.2" cy="449.8" r="0.85" fill="#FFFFFF" opacity="0.33"/><circle cx="119.73" cy="240.01" r="0.97" fill="#FFFFFF" opacity="0.37"/><circle cx="258.18" cy="151.4" r="0.49" fill="#D8C06A" opacity="0.21"/><circle cx="293.86" cy="466.24" r="0.41" fill="#FFFFFF" opacity="0.18"/><circle cx="397.81" cy="471.18" r="0.43" fill="#D8C06A" opacity="0.19"/><circle cx="83.86" cy="404.23" r="1.09" fill="#D8C06A" opacity="0.4"/><circle cx="37.91" cy="123.89" r="0.74" fill="#FFFFFF" opacity="0.29"/><circle cx="42.56" cy="337.72" r="0.44" fill="#FFFFFF" opacity="0.19"/><circle cx="301.81" cy="451.77" r="2.07" fill="#FFFFFF" opacity="0.72"/><path d="M290.42 451.77 L301.81 450.74 L313.2 451.77 L301.81 452.8Z"
      fill="#FFFFFF" opacity="0.4"/>
    <path d="M301.81 440.38 L302.84 451.77 L301.81 463.15999999999997 L300.78 451.77Z"
      fill="#FFFFFF" opacity="0.4"/><circle cx="423.38" cy="212.74" r="0.4" fill="#FFFFFF" opacity="0.18"/><circle cx="442.35" cy="93.64" r="1.21" fill="#FFFFFF" opacity="0.44"/><circle cx="155.77" cy="41.69" r="0.54" fill="#FFFFFF" opacity="0.23"/><circle cx="179.06" cy="483.12" r="1.28" fill="#FFFFFF" opacity="0.47"/><circle cx="315.43" cy="458.95" r="0.42" fill="#FFFFFF" opacity="0.19"/><circle cx="320.71" cy="195.56" r="0.71" fill="#FFFFFF" opacity="0.28"/><circle cx="253.86" cy="44.18" r="2.08" fill="#FFFFFF" opacity="0.73"/><path d="M242.42000000000002 44.18 L253.86 43.14 L265.3 44.18 L253.86 45.22Z"
      fill="#FFFFFF" opacity="0.4"/>
    <path d="M253.86 32.74 L254.9 44.18 L253.86 55.62 L252.82 44.18Z"
      fill="#FFFFFF" opacity="0.4"/><circle cx="334.9" cy="182.74" r="0.74" fill="#FFFFFF" opacity="0.29"/><circle cx="469.49" cy="154" r="0.86" fill="#FFFFFF" opacity="0.33"/><circle cx="189.3" cy="76.7" r="0.4" fill="#FFFFFF" opacity="0.18"/><circle cx="5.94" cy="309.14" r="0.62" fill="#FFFFFF" opacity="0.25"/><circle cx="26.91" cy="285.01" r="0.56" fill="#FFFFFF" opacity="0.23"/><circle cx="213.69" cy="12.89" r="0.42" fill="#FFFFFF" opacity="0.19"/><circle cx="133.84" cy="391.4" r="0.62" fill="#FFFFFF" opacity="0.25"/><circle cx="486.59" cy="114.68" r="1.72" fill="#FFFFFF" opacity="0.61"/><circle cx="376.12" cy="408.24" r="1.08" fill="#FFFFFF" opacity="0.4"/><circle cx="486.71" cy="122.97" r="1.03" fill="#FFFFFF" opacity="0.39"/><circle cx="251.87" cy="177.97" r="0.42" fill="#FFFFFF" opacity="0.19"/><circle cx="246.25" cy="156.49" r="0.46" fill="#FFFFFF" opacity="0.2"/><circle cx="109.44" cy="371.57" r="2.11" fill="#FFFFFF" opacity="0.74"/><path d="M97.84 371.57 L109.44 370.51 L121.03999999999999 371.57 L109.44 372.63Z"
      fill="#FFFFFF" opacity="0.4"/>
    <path d="M109.44 359.96999999999997 L110.5 371.57 L109.44 383.17 L108.38 371.57Z"
      fill="#FFFFFF" opacity="0.4"/><circle cx="494.06" cy="115.34" r="0.4" fill="#D8C06A" opacity="0.18"/><circle cx="228.64" cy="277.53" r="2.1" fill="#FFFFFF" opacity="0.73"/><path d="M217.08999999999997 277.53 L228.64 276.48 L240.19 277.53 L228.64 278.58Z"
      fill="#FFFFFF" opacity="0.4"/>
    <path d="M228.64 265.97999999999996 L229.69 277.53 L228.64 289.08 L227.59 277.53Z"
      fill="#FFFFFF" opacity="0.4"/><circle cx="81.22" cy="116.45" r="0.45" fill="#FFFFFF" opacity="0.2"/><circle cx="257.88" cy="208.5" r="0.59" fill="#FFFFFF" opacity="0.24"/><circle cx="171.39" cy="129.34" r="0.9" fill="#FFFFFF" opacity="0.34"/><circle cx="129.71" cy="60.85" r="0.52" fill="#FFFFFF" opacity="0.22"/><circle cx="266.33" cy="289.62" r="0.43" fill="#FFFFFF" opacity="0.19"/><circle cx="257.1" cy="136.24" r="0.93" fill="#D8C06A" opacity="0.35"/><circle cx="423.77" cy="303.35" r="1.32" fill="#FFFFFF" opacity="0.48"/><circle cx="94.39" cy="482.57" r="0.4" fill="#D8C06A" opacity="0.18"/><circle cx="170.44" cy="82.93" r="1.26" fill="#FFFFFF" opacity="0.46"/><circle cx="264.23" cy="393.98" r="0.49" fill="#FFFFFF" opacity="0.21"/><circle cx="437.34" cy="368.73" r="0.73" fill="#FFFFFF" opacity="0.29"/><circle cx="369.45" cy="387.11" r="0.44" fill="#FFFFFF" opacity="0.19"/><circle cx="117.37" cy="221.17" r="0.87" fill="#FFFFFF" opacity="0.33"/><circle cx="454.81" cy="489.14" r="1.85" fill="#FFFFFF" opacity="0.65"/><circle cx="225.3" cy="107.32" r="0.9" fill="#D8C06A" opacity="0.34"/><circle cx="215.83" cy="412.63" r="0.41" fill="#FFFFFF" opacity="0.18"/><circle cx="296.57" cy="495.82" r="0.75" fill="#FFFFFF" opacity="0.3"/><circle cx="235.62" cy="31.37" r="0.56" fill="#FFFFFF" opacity="0.23"/><circle cx="240.79" cy="394.03" r="1.7" fill="#FFFFFF" opacity="0.61"/><circle cx="486.34" cy="455.32" r="0.42" fill="#D8C06A" opacity="0.19"/><circle cx="199.58" cy="362.47" r="2.14" fill="#FFFFFF" opacity="0.75"/><path d="M187.81 362.47 L199.58 361.4 L211.35000000000002 362.47 L199.58 363.54Z"
      fill="#FFFFFF" opacity="0.4"/>
    <path d="M199.58 350.70000000000005 L200.65 362.47 L199.58 374.24 L198.51 362.47Z"
      fill="#FFFFFF" opacity="0.4"/><circle cx="278.04" cy="491.26" r="0.42" fill="#FFFFFF" opacity="0.19"/><circle cx="83.56" cy="405.43" r="0.41" fill="#FFFFFF" opacity="0.18"/><circle cx="194.85" cy="296.15" r="1.42" fill="#FFFFFF" opacity="0.51"/><circle cx="1.52" cy="71.76" r="0.4" fill="#FFFFFF" opacity="0.18"/><circle cx="331.97" cy="413.63" r="1.22" fill="#FFFFFF" opacity="0.45"/>

  <!-- 这一片天区的气体。它是天区色唯一大面积出现的地方 -->
  <ellipse cx="202.84" cy="201.36"
    rx="164.48" ry="158.99"
    fill="url(#neb27)"/>

  <path d="M316.69 335.02 L211.98 309.48" stroke="#D8C06A"
      stroke-width="6" opacity="0.14" stroke-linecap="round"/><path d="M316.69 335.02 L211.98 309.48" stroke="#FFF3D2"
      stroke-width="1.3" opacity="0.62" stroke-linecap="round"/><path d="M211.98 309.48 L132.61 247.46" stroke="#D8C06A"
      stroke-width="6" opacity="0.14" stroke-linecap="round"/><path d="M211.98 309.48 L132.61 247.46" stroke="#FFF3D2"
      stroke-width="1.3" opacity="0.62" stroke-linecap="round"/><path d="M132.61 247.46 L151.92 124.23" stroke="#D8C06A"
      stroke-width="6" opacity="0.14" stroke-linecap="round"/><path d="M132.61 247.46 L151.92 124.23" stroke="#FFF3D2"
      stroke-width="1.3" opacity="0.62" stroke-linecap="round"/><path d="M151.92 124.23 L288.61 113.11" stroke="#D8C06A"
      stroke-width="6" opacity="0.14" stroke-linecap="round"/><path d="M151.92 124.23 L288.61 113.11" stroke="#FFF3D2"
      stroke-width="1.3" opacity="0.62" stroke-linecap="round"/><path d="M288.61 113.11 L372.46 213.93" stroke="#D8C06A"
      stroke-width="6" opacity="0.14" stroke-linecap="round"/><path d="M288.61 113.11 L372.46 213.93" stroke="#FFF3D2"
      stroke-width="1.3" opacity="0.62" stroke-linecap="round"/><path d="M372.46 213.93 L399.57 256.24" stroke="#D8C06A"
      stroke-width="6" opacity="0.14" stroke-linecap="round"/><path d="M372.46 213.93 L399.57 256.24" stroke="#FFF3D2"
      stroke-width="1.3" opacity="0.62" stroke-linecap="round"/>
  <circle cx="316.69" cy="335.02" r="51" fill="url(#orb27)" opacity="0.8"/><circle cx="316.69" cy="335.02" r="15" fill="#FFFFFF"/><circle cx="316.69" cy="335.02" r="25.5" fill="none"
      stroke="#FFF3D2" stroke-width="1" opacity="0.45"/><path d="M238.69 335.02 L316.69 331.72 L394.69 335.02 L316.69 338.32Z"
      fill="#FFFFFF" opacity="0.5"/>
    <path d="M316.69 257.02 L319.99 335.02 L316.69 413.02 L313.39 335.02Z"
      fill="#FFFFFF" opacity="0.5"/><circle cx="211.98" cy="309.48" r="30.6" fill="url(#orb27)" opacity="0.53"/><circle cx="211.98" cy="309.48" r="9" fill="#FFFFFF"/><circle cx="211.98" cy="309.48" r="15.3" fill="none"
      stroke="#FFF3D2" stroke-width="1" opacity="0.45"/><circle cx="132.61" cy="247.46" r="33.49" fill="url(#orb27)" opacity="0.57"/><circle cx="132.61" cy="247.46" r="9.85" fill="#FFFFFF"/><circle cx="132.61" cy="247.46" r="16.74" fill="none"
      stroke="#FFF3D2" stroke-width="1" opacity="0.45"/><circle cx="151.92" cy="124.23" r="33.8" fill="url(#orb27)" opacity="0.57"/><circle cx="151.92" cy="124.23" r="9.94" fill="#FFFFFF"/><circle cx="151.92" cy="124.23" r="16.9" fill="none"
      stroke="#FFF3D2" stroke-width="1" opacity="0.45"/><circle cx="288.61" cy="113.11" r="42.98" fill="url(#orb27)" opacity="0.69"/><circle cx="288.61" cy="113.11" r="12.64" fill="#FFFFFF"/><circle cx="288.61" cy="113.11" r="21.49" fill="none"
      stroke="#FFF3D2" stroke-width="1" opacity="0.45"/><path d="M222.88 113.11 L288.61 110.33 L354.34000000000003 113.11 L288.61 115.89Z"
      fill="#FFFFFF" opacity="0.5"/>
    <path d="M288.61 47.379999999999995 L291.39 113.11 L288.61 178.84 L285.83 113.11Z"
      fill="#FFFFFF" opacity="0.5"/><circle cx="372.46" cy="213.93" r="36.65" fill="url(#orb27)" opacity="0.61"/><circle cx="372.46" cy="213.93" r="10.78" fill="#FFFFFF"/><circle cx="372.46" cy="213.93" r="18.33" fill="none"
      stroke="#FFF3D2" stroke-width="1" opacity="0.45"/><path d="M316.4 213.93 L372.46 211.56 L428.52 213.93 L372.46 216.3Z"
      fill="#FFFFFF" opacity="0.5"/>
    <path d="M372.46 157.87 L374.83 213.93 L372.46 269.99 L370.09 213.93Z"
      fill="#FFFFFF" opacity="0.5"/><circle cx="399.57" cy="256.24" r="40.97" fill="url(#orb27)" opacity="0.67"/><circle cx="399.57" cy="256.24" r="12.05" fill="#FFFFFF"/><circle cx="399.57" cy="256.24" r="20.49" fill="none"
      stroke="#FFF3D2" stroke-width="1" opacity="0.45"/><path d="M336.90999999999997 256.24 L399.57 253.59 L462.23 256.24 L399.57 258.89Z"
      fill="#FFFFFF" opacity="0.5"/>
    <path d="M399.57 193.58 L402.22 256.24 L399.57 318.9 L396.92 256.24Z"
      fill="#FFFFFF" opacity="0.5"/>
</svg>