<svg xmlns="http://www.w3.org/2000/svg" viewBox="0 0 500 500" width="500" height="500">
  <defs>
    <radialGradient id="sky86" cx="50%" cy="42%" r="76%">
      <stop offset="0%" stop-color="#2A1F55" stop-opacity="0.55"/>
      <stop offset="100%" stop-color="#07050F" stop-opacity="1"/>
    </radialGradient>
    <radialGradient id="orb86">
      <stop offset="0%" stop-color="#EADFFF" stop-opacity="0.85"/>
      <stop offset="40%" stop-color="#A08ADA" stop-opacity="0.28"/>
      <stop offset="100%" stop-color="#A08ADA" stop-opacity="0"/>
    </radialGradient>
    <radialGradient id="neb86" cx="50%" cy="50%" r="50%">
      <stop offset="0%" stop-color="#A08ADA" stop-opacity="0.30"/>
      <stop offset="100%" stop-color="#A08ADA" stop-opacity="0"/>
    </radialGradient>
  </defs>

  <rect width="500" height="500" fill="#07050F"/>
  <rect width="500" height="500" fill="url(#sky86)"/>
  <circle cx="389.75" cy="21.59" r="0.98" fill="#FFFFFF" opacity="0.37"/><circle cx="202.41" cy="359.75" r="1.13" fill="#FFFFFF" opacity="0.42"/><circle cx="202.69" cy="123.89" r="0.83" fill="#FFFFFF" opacity="0.32"/><circle cx="68.17" cy="257.94" r="0.57" fill="#FFFFFF" opacity="0.24"/><circle cx="47.84" cy="19.42" r="1.07" fill="#FFFFFF" opacity="0.4"/><circle cx="116.3" cy="139.07" r="1.43" fill="#FFFFFF" opacity="0.52"/><circle cx="250.14" cy="68.07" r="2.3" fill="#A08ADA" opacity="0.8"/><path d="M237.48999999999998 68.07 L250.14 66.92 L262.78999999999996 68.07 L250.14 69.22Z"
      fill="#FFFFFF" opacity="0.4"/>
    <path d="M250.14 55.419999999999995 L251.29 68.07 L250.14 80.72 L248.99 68.07Z"
      fill="#FFFFFF" opacity="0.4"/><circle cx="91.96" cy="96.56" r="1" fill="#FFFFFF" opacity="0.38"/><circle cx="234.18" cy="344.73" r="1.52" fill="#FFFFFF" opacity="0.55"/><circle cx="497.14" cy="425.23" r="0.96" fill="#FFFFFF" opacity="0.36"/><circle cx="428.74" cy="304.83" r="1.21" fill="#FFFFFF" opacity="0.44"/><circle cx="285.09" cy="63.95" r="0.69" fill="#FFFFFF" opacity="0.27"/><circle cx="211.45" cy="421.26" r="0.42" fill="#A08ADA" opacity="0.19"/><circle cx="132.21" cy="497.51" r="0.45" fill="#FFFFFF" opacity="0.2"/><circle cx="460.23" cy="99.22" r="0.45" fill="#FFFFFF" opacity="0.2"/><circle cx="378.68" cy="411.35" r="0.4" fill="#FFFFFF" opacity="0.18"/><circle cx="223.53" cy="394.65" r="1.36" fill="#FFFFFF" opacity="0.49"/><circle cx="16.36" cy="419.22" r="1.18" fill="#FFFFFF" opacity="0.44"/><circle cx="279.11" cy="78.75" r="0.4" fill="#FFFFFF" opacity="0.18"/><circle cx="68.85" cy="136.74" r="0.81" fill="#A08ADA" opacity="0.31"/><circle cx="226.54" cy="2.49" r="1.5" fill="#FFFFFF" opacity="0.54"/><circle cx="101.34" cy="259.3" r="2.27" fill="#A08ADA" opacity="0.79"/><path d="M88.85000000000001 259.3 L101.34 258.16 L113.83 259.3 L101.34 260.44Z"
      fill="#FFFFFF" opacity="0.4"/>
    <path d="M101.34 246.81 L102.48 259.3 L101.34 271.79 L100.2 259.3Z"
      fill="#FFFFFF" opacity="0.4"/><circle cx="329.99" cy="70.57" r="0.44" fill="#FFFFFF" opacity="0.19"/><circle cx="381.25" cy="212.96" r="0.76" fill="#FFFFFF" opacity="0.3"/><circle cx="64.36" cy="207.91" r="1.31" fill="#FFFFFF" opacity="0.48"/><circle cx="199.44" cy="44.34" r="0.64" fill="#FFFFFF" opacity="0.26"/><circle cx="131.54" cy="265.76" r="0.41" fill="#A08ADA" opacity="0.18"/><circle cx="88.18" cy="46.15" r="0.54" fill="#FFFFFF" opacity="0.23"/><circle cx="422.23" cy="430.94" r="1.03" fill="#FFFFFF" opacity="0.39"/><circle cx="217.61" cy="315.52" r="1.32" fill="#A08ADA" opacity="0.48"/><circle cx="28.85" cy="364.17" r="0.41" fill="#FFFFFF" opacity="0.18"/><circle cx="381.15" cy="68.29" r="0.55" fill="#FFFFFF" opacity="0.23"/><circle cx="303.06" cy="70.42" r="0.42" fill="#FFFFFF" opacity="0.19"/><circle cx="334.08" cy="461.49" r="0.63" fill="#FFFFFF" opacity="0.25"/><circle cx="118.32" cy="137.61" r="1.44" fill="#FFFFFF" opacity="0.52"/><circle cx="476.2" cy="23.26" r="1.72" fill="#FFFFFF" opacity="0.61"/><circle cx="326.81" cy="132.1" r="0.46" fill="#FFFFFF" opacity="0.2"/><circle cx="175.2" cy="151.23" r="0.52" fill="#A08ADA" opacity="0.22"/><circle cx="401.56" cy="471.32" r="0.4" fill="#FFFFFF" opacity="0.18"/><circle cx="393.01" cy="252.71" r="0.67" fill="#FFFFFF" opacity="0.27"/><circle cx="357.5" cy="422.25" r="1.05" fill="#FFFFFF" opacity="0.39"/><circle cx="56.46" cy="351.35" r="0.58" fill="#FFFFFF" opacity="0.24"/><circle cx="279.7" cy="440.96" r="0.87" fill="#FFFFFF" opacity="0.33"/><circle cx="254.31" cy="250.94" r="0.4" fill="#FFFFFF" opacity="0.18"/><circle cx="146.18" cy="404.84" r="0.58" fill="#A08ADA" opacity="0.24"/><circle cx="436.32" cy="212.51" r="0.69" fill="#A08ADA" opacity="0.28"/><circle cx="80.66" cy="194.91" r="0.9" fill="#FFFFFF" opacity="0.34"/><circle cx="56.07" cy="352.75" r="0.74" fill="#FFFFFF" opacity="0.29"/><circle cx="247.93" cy="30.06" r="0.89" fill="#FFFFFF" opacity="0.34"/><circle cx="312.69" cy="357.89" r="0.41" fill="#A08ADA" opacity="0.18"/><circle cx="79.59" cy="238.08" r="1.23" fill="#FFFFFF" opacity="0.45"/><circle cx="234.73" cy="170.47" r="0.42" fill="#FFFFFF" opacity="0.19"/><circle cx="362.69" cy="177.22" r="2.03" fill="#FFFFFF" opacity="0.71"/><circle cx="369.2" cy="136.8" r="0.86" fill="#FFFFFF" opacity="0.33"/><circle cx="426.31" cy="420.1" r="0.47" fill="#A08ADA" opacity="0.2"/><circle cx="338.13" cy="433.19" r="0.42" fill="#A08ADA" opacity="0.19"/><circle cx="438.75" cy="17.47" r="0.41" fill="#FFFFFF" opacity="0.18"/><circle cx="48.18" cy="296.45" r="1.36" fill="#FFFFFF" opacity="0.49"/><circle cx="481.85" cy="8.98" r="0.4" fill="#A08ADA" opacity="0.18"/><circle cx="401.46" cy="370.39" r="0.43" fill="#FFFFFF" opacity="0.19"/><circle cx="27.3" cy="251.31" r="0.6" fill="#FFFFFF" opacity="0.25"/><circle cx="167.04" cy="427.01" r="1.02" fill="#FFFFFF" opacity="0.38"/><circle cx="61.34" cy="488.53" r="0.71" fill="#FFFFFF" opacity="0.28"/><circle cx="162.1" cy="471.98" r="0.41" fill="#FFFFFF" opacity="0.18"/><circle cx="240.15" cy="281.21" r="0.65" fill="#FFFFFF" opacity="0.26"/><circle cx="313.35" cy="467.3" r="2.12" fill="#A08ADA" opacity="0.74"/><path d="M301.69 467.3 L313.35 466.24 L325.01000000000005 467.3 L313.35 468.36Z"
      fill="#FFFFFF" opacity="0.4"/>
    <path d="M313.35 455.64 L314.41 467.3 L313.35 478.96000000000004 L312.29 467.3Z"
      fill="#FFFFFF" opacity="0.4"/><circle cx="62.11" cy="340.07" r="0.48" fill="#FFFFFF" opacity="0.21"/><circle cx="17.36" cy="229.11" r="0.45" fill="#FFFFFF" opacity="0.2"/><circle cx="111.59" cy="21.54" r="0.41" fill="#FFFFFF" opacity="0.18"/><circle cx="348.14" cy="120.26" r="0.72" fill="#FFFFFF" opacity="0.28"/><circle cx="479.83" cy="498.55" r="0.59" fill="#A08ADA" opacity="0.24"/><circle cx="485.85" cy="141.76" r="0.41" fill="#FFFFFF" opacity="0.18"/><circle cx="96.95" cy="364.53" r="0.43" fill="#FFFFFF" opacity="0.19"/><circle cx="232.55" cy="384.16" r="0.4" fill="#FFFFFF" opacity="0.18"/><circle cx="42.33" cy="466.52" r="1.15" fill="#FFFFFF" opacity="0.42"/><circle cx="164.48" cy="362.91" r="2.18" fill="#A08ADA" opacity="0.76"/><path d="M152.48999999999998 362.91 L164.48 361.82 L176.47 362.91 L164.48 364Z"
      fill="#FFFFFF" opacity="0.4"/>
    <path d="M164.48 350.92 L165.57 362.91 L164.48 374.90000000000003 L163.39 362.91Z"
      fill="#FFFFFF" opacity="0.4"/><circle cx="334.72" cy="95.39" r="0.65" fill="#FFFFFF" opacity="0.26"/><circle cx="165.45" cy="134.19" r="0.79" fill="#FFFFFF" opacity="0.31"/><circle cx="135.79" cy="230.52" r="1.33" fill="#FFFFFF" opacity="0.48"/><circle cx="135.49" cy="99.4" r="0.61" fill="#FFFFFF" opacity="0.25"/><circle cx="394.64" cy="275.98" r="1.48" fill="#FFFFFF" opacity="0.53"/><circle cx="287.84" cy="145.68" r="2.07" fill="#FFFFFF" opacity="0.73"/><path d="M276.45 145.68 L287.84 144.65 L299.22999999999996 145.68 L287.84 146.71Z"
      fill="#FFFFFF" opacity="0.4"/>
    <path d="M287.84 134.29000000000002 L288.87 145.68 L287.84 157.07 L286.81 145.68Z"
      fill="#FFFFFF" opacity="0.4"/><circle cx="45.4" cy="476.43" r="1.16" fill="#FFFFFF" opacity="0.43"/><circle cx="34.34" cy="188.39" r="0.81" fill="#A08ADA" opacity="0.31"/><circle cx="493.42" cy="451.3" r="0.4" fill="#FFFFFF" opacity="0.18"/><circle cx="149.19" cy="360.71" r="0.4" fill="#FFFFFF" opacity="0.18"/><circle cx="453.04" cy="278.37" r="0.48" fill="#FFFFFF" opacity="0.2"/><circle cx="436.46" cy="109.12" r="2.24" fill="#FFFFFF" opacity="0.78"/><path d="M424.14 109.12 L436.46 108 L448.78 109.12 L436.46 110.24Z"
      fill="#FFFFFF" opacity="0.4"/>
    <path d="M436.46 96.80000000000001 L437.58 109.12 L436.46 121.44 L435.34 109.12Z"
      fill="#FFFFFF" opacity="0.4"/><circle cx="341.36" cy="243.88" r="1.56" fill="#A08ADA" opacity="0.56"/><circle cx="367.4" cy="356.74" r="0.84" fill="#FFFFFF" opacity="0.32"/><circle cx="468.22" cy="400.28" r="0.4" fill="#FFFFFF" opacity="0.18"/><circle cx="165.29" cy="64.58" r="1.62" fill="#FFFFFF" opacity="0.58"/><circle cx="143.25" cy="128.15" r="0.83" fill="#FFFFFF" opacity="0.32"/><circle cx="359.02" cy="88.01" r="0.76" fill="#FFFFFF" opacity="0.3"/><circle cx="235.16" cy="332.27" r="1.92" fill="#A08ADA" opacity="0.68"/><circle cx="177.31" cy="17.43" r="1.92" fill="#FFFFFF" opacity="0.68"/><circle cx="467.5" cy="267.64" r="0.52" fill="#A08ADA" opacity="0.22"/><circle cx="76.56" cy="174.81" r="0.43" fill="#A08ADA" opacity="0.19"/><circle cx="69.25" cy="338.46" r="0.42" fill="#FFFFFF" opacity="0.19"/><circle cx="334.51" cy="87.89" r="0.5" fill="#FFFFFF" opacity="0.21"/><circle cx="458.4" cy="271.61" r="0.4" fill="#FFFFFF" opacity="0.18"/><circle cx="69.39" cy="196.45" r="0.6" fill="#FFFFFF" opacity="0.25"/><circle cx="156.81" cy="430.55" r="0.63" fill="#FFFFFF" opacity="0.25"/><circle cx="72.35" cy="447.84" r="1.16" fill="#A08ADA" opacity="0.43"/><circle cx="469.88" cy="252.68" r="1.07" fill="#FFFFFF" opacity="0.4"/><circle cx="438.95" cy="15.03" r="0.42" fill="#FFFFFF" opacity="0.19"/><circle cx="269.56" cy="44.63" r="0.4" fill="#FFFFFF" opacity="0.18"/><circle cx="390.07" cy="336.62" r="0.46" fill="#A08ADA" opacity="0.2"/><circle cx="221.35" cy="213.26" r="0.56" fill="#FFFFFF" opacity="0.23"/><circle cx="130.35" cy="219.73" r="2.06" fill="#A08ADA" opacity="0.72"/><path d="M119.02 219.73 L130.35 218.7 L141.68 219.73 L130.35 220.76Z"
      fill="#FFFFFF" opacity="0.4"/>
    <path d="M130.35 208.39999999999998 L131.38 219.73 L130.35 231.06 L129.32 219.73Z"
      fill="#FFFFFF" opacity="0.4"/><circle cx="95.35" cy="112.83" r="0.8" fill="#FFFFFF" opacity="0.31"/><circle cx="13.44" cy="317.98" r="0.99" fill="#FFFFFF" opacity="0.37"/><circle cx="449.8" cy="296.56" r="0.89" fill="#FFFFFF" opacity="0.34"/><circle cx="352" cy="80.58" r="1.18" fill="#FFFFFF" opacity="0.43"/><circle cx="383.72" cy="163.78" r="0.53" fill="#FFFFFF" opacity="0.22"/><circle cx="404.69" cy="159.34" r="1.91" fill="#FFFFFF" opacity="0.67"/><circle cx="96.55" cy="296.81" r="0.4" fill="#FFFFFF" opacity="0.18"/><circle cx="361.46" cy="105.78" r="1.64" fill="#A08ADA" opacity="0.58"/><circle cx="46.39" cy="206.91" r="0.43" fill="#FFFFFF" opacity="0.19"/><circle cx="131.91" cy="441.18" r="1.2" fill="#FFFFFF" opacity="0.44"/><circle cx="350.72" cy="133.13" r="0.42" fill="#FFFFFF" opacity="0.19"/><circle cx="163.67" cy="297.86" r="0.41" fill="#FFFFFF" opacity="0.18"/><circle cx="264.24" cy="14.76" r="0.44" fill="#A08ADA" opacity="0.19"/><circle cx="55.5" cy="299.12" r="1.09" fill="#FFFFFF" opacity="0.41"/><circle cx="449.2" cy="128.89" r="0.74" fill="#A08ADA" opacity="0.29"/><circle cx="10.54" cy="93.88" r="1.02" fill="#FFFFFF" opacity="0.38"/><circle cx="53.04" cy="2.01" r="0.75" fill="#FFFFFF" opacity="0.3"/><circle cx="268.13" cy="459.62" r="1.56" fill="#FFFFFF" opacity="0.56"/><circle cx="177.03" cy="383.17" r="1.47" fill="#FFFFFF" opacity="0.53"/><circle cx="400.96" cy="405.89" r="1.33" fill="#FFFFFF" opacity="0.49"/><circle cx="356.87" cy="337.19" r="0.55" fill="#FFFFFF" opacity="0.23"/><circle cx="215.48" cy="88.73" r="0.7" fill="#FFFFFF" opacity="0.28"/><circle cx="75.38" cy="382.92" r="0.9" fill="#A08ADA" opacity="0.34"/><circle cx="363.5" cy="422.87" r="0.63" fill="#A08ADA" opacity="0.25"/><circle cx="20.8" cy="87.82" r="2.2" fill="#FFFFFF" opacity="0.77"/><path d="M8.700000000000001 87.82 L20.8 86.72 L32.9 87.82 L20.8 88.92Z"
      fill="#FFFFFF" opacity="0.4"/>
    <path d="M20.8 75.72 L21.9 87.82 L20.8 99.91999999999999 L19.7 87.82Z"
      fill="#FFFFFF" opacity="0.4"/><circle cx="179.02" cy="359.38" r="0.41" fill="#FFFFFF" opacity="0.18"/><circle cx="317.22" cy="475.66" r="2" fill="#FFFFFF" opacity="0.7"/><circle cx="160.51" cy="130.61" r="0.42" fill="#FFFFFF" opacity="0.19"/><circle cx="307.83" cy="268.02" r="0.5" fill="#FFFFFF" opacity="0.21"/><circle cx="288.89" cy="419.12" r="0.65" fill="#FFFFFF" opacity="0.26"/><circle cx="276.84" cy="356.81" r="1.3" fill="#A08ADA" opacity="0.47"/><circle cx="261.54" cy="267.86" r="1.24" fill="#FFFFFF" opacity="0.45"/><circle cx="472.48" cy="492.4" r="0.66" fill="#A08ADA" opacity="0.26"/><circle cx="367.54" cy="306.32" r="1.2" fill="#FFFFFF" opacity="0.44"/><circle cx="102.34" cy="484.3" r="0.54" fill="#FFFFFF" opacity="0.23"/><circle cx="372.46" cy="386.29" r="1.6" fill="#FFFFFF" opacity="0.57"/><circle cx="33.25" cy="387.31" r="0.4" fill="#FFFFFF" opacity="0.18"/><circle cx="487.38" cy="469.31" r="0.64" fill="#FFFFFF" opacity="0.26"/><circle cx="220.5" cy="476.16" r="0.91" fill="#FFFFFF" opacity="0.35"/><circle cx="461.01" cy="215.57" r="0.52" fill="#FFFFFF" opacity="0.22"/>

  <!-- 这一片天区的气体。它是天区色唯一大面积出现的地方 -->
  <ellipse cx="283.71" cy="217.44"
    rx="177.92" ry="169.83"
    fill="url(#neb86)"/>

  <path d="M171.61 361.35 L99.85 311.43" stroke="#A08ADA"
      stroke-width="6" opacity="0.14" stroke-linecap="round"/><path d="M171.61 361.35 L99.85 311.43" stroke="#EADFFF"
      stroke-width="1.3" opacity="0.62" stroke-linecap="round"/><path d="M99.85 311.43 L139.63 130.07" stroke="#A08ADA"
      stroke-width="6" opacity="0.14" stroke-linecap="round"/><path d="M99.85 311.43 L139.63 130.07" stroke="#EADFFF"
      stroke-width="1.3" opacity="0.62" stroke-linecap="round"/><path d="M139.63 130.07 L289.2 147.63" stroke="#A08ADA"
      stroke-width="6" opacity="0.14" stroke-linecap="round"/><path d="M139.63 130.07 L289.2 147.63" stroke="#EADFFF"
      stroke-width="1.3" opacity="0.62" stroke-linecap="round"/><path d="M289.2 147.63 L339.51 259.17" stroke="#A08ADA"
      stroke-width="6" opacity="0.14" stroke-linecap="round"/><path d="M289.2 147.63 L339.51 259.17" stroke="#EADFFF"
      stroke-width="1.3" opacity="0.62" stroke-linecap="round"/>
  <circle cx="171.61" cy="361.35" r="51" fill="url(#orb86)" opacity="0.8"/><circle cx="171.61" cy="361.35" r="15" fill="#FFFFFF"/><circle cx="171.61" cy="361.35" r="25.5" fill="none"
      stroke="#EADFFF" stroke-width="1" opacity="0.45"/><path d="M93.61000000000001 361.35 L171.61 358.05 L249.61 361.35 L171.61 364.65Z"
      fill="#FFFFFF" opacity="0.5"/>
    <path d="M171.61 283.35 L174.91 361.35 L171.61 439.35 L168.31 361.35Z"
      fill="#FFFFFF" opacity="0.5"/><circle cx="99.85" cy="311.43" r="36.55" fill="url(#orb86)" opacity="0.61"/><circle cx="99.85" cy="311.43" r="10.75" fill="#FFFFFF"/><circle cx="99.85" cy="311.43" r="18.27" fill="none"
      stroke="#EADFFF" stroke-width="1" opacity="0.45"/><path d="M43.949999999999996 311.43 L99.85 309.06 L155.75 311.43 L99.85 313.8Z"
      fill="#FFFFFF" opacity="0.5"/>
    <path d="M99.85 255.53 L102.22 311.43 L99.85 367.33 L97.48 311.43Z"
      fill="#FFFFFF" opacity="0.5"/><circle cx="139.63" cy="130.07" r="35.33" fill="url(#orb86)" opacity="0.59"/><circle cx="139.63" cy="130.07" r="10.39" fill="#FFFFFF"/><circle cx="139.63" cy="130.07" r="17.66" fill="none"
      stroke="#EADFFF" stroke-width="1" opacity="0.45"/><circle cx="289.2" cy="147.63" r="39.78" fill="url(#orb86)" opacity="0.65"/><circle cx="289.2" cy="147.63" r="11.7" fill="#FFFFFF"/><circle cx="289.2" cy="147.63" r="19.89" fill="none"
      stroke="#EADFFF" stroke-width="1" opacity="0.45"/><path d="M228.35999999999999 147.63 L289.2 145.06 L350.03999999999996 147.63 L289.2 150.2Z"
      fill="#FFFFFF" opacity="0.5"/>
    <path d="M289.2 86.78999999999999 L291.77 147.63 L289.2 208.47 L286.63 147.63Z"
      fill="#FFFFFF" opacity="0.5"/><circle cx="339.51" cy="259.17" r="36.28" fill="url(#orb86)" opacity="0.6"/><circle cx="339.51" cy="259.17" r="10.67" fill="#FFFFFF"/><circle cx="339.51" cy="259.17" r="18.14" fill="none"
      stroke="#EADFFF" stroke-width="1" opacity="0.45"/><path d="M284.03 259.17 L339.51 256.82 L394.99 259.17 L339.51 261.52Z"
      fill="#FFFFFF" opacity="0.5"/>
    <path d="M339.51 203.69000000000003 L341.86 259.17 L339.51 314.65000000000003 L337.16 259.17Z"
      fill="#FFFFFF" opacity="0.5"/>
</svg>